<svg width="172" height="15" viewBox="0 0 172 15" fill="none" xmlns="http://www.w3.org/2000/svg">
<path d="M6.74053 14.288C5.46053 14.288 4.35333 14.0128 3.41893 13.4624C2.48453 12.8992 1.76773 12.0992 1.26853 11.0624C0.769325 10.0256 0.519725 8.7904 0.519725 7.3568C0.519725 5.9232 0.769325 4.688 1.26853 3.6512C1.76773 2.6016 2.48453 1.8016 3.41893 1.2512C4.36613 0.687999 5.47973 0.406399 6.75973 0.406399C8.35973 0.406399 9.65253 0.822399 10.6381 1.6544C11.6237 2.4864 12.2189 3.6128 12.4237 5.0336L9.63973 5.7824C9.49893 4.8736 9.17893 4.1824 8.67973 3.7088C8.18053 3.2224 7.55333 2.9792 6.79813 2.9792C5.81253 2.9792 5.04453 3.3632 4.49413 4.1312C3.95653 4.8992 3.68773 5.9744 3.68773 7.3568C3.68773 8.7264 3.95653 9.7952 4.49413 10.5632C5.04453 11.3312 5.80613 11.7152 6.77893 11.7152C8.43013 11.7152 9.39653 10.7104 9.67813 8.7008L12.4621 9.4496C12.2573 10.9472 11.6493 12.1312 10.6381 13.0016C9.63973 13.8592 8.34053 14.288 6.74053 14.288ZM13.8292 7.3376L13.7716 0.694399H19.282C21.01 0.694399 22.3092 1.0464 23.1796 1.7504C24.0628 2.4416 24.5044 3.4784 24.5044 4.8608C24.5044 6.4992 23.8004 7.6 22.3924 8.1632C22.9044 8.4064 23.3012 8.7776 23.5828 9.2768C23.8644 9.7632 24.0436 10.3968 24.1204 11.1776C24.1844 11.9072 24.2484 12.496 24.3124 12.944C24.3892 13.392 24.4916 13.744 24.6196 14H21.4708C21.266 13.5392 21.1124 12.6432 21.01 11.312C20.9588 10.6976 20.85 10.2432 20.6836 9.9488C20.5172 9.6544 20.2868 9.456 19.9924 9.3536C19.698 9.2512 19.282 9.2 18.7444 9.2H16.8628L16.9012 14H13.7716L13.8292 7.3376ZM19.0708 6.9344C19.89 6.9344 20.5044 6.7744 20.914 6.4544C21.3236 6.1344 21.5284 5.6672 21.5284 5.0528C21.5284 3.8112 20.7412 3.1904 19.1668 3.1904H16.8628L16.8436 6.9344H19.0708ZM26.448 7.3376L26.3904 0.694399H35.9328V3.1712H29.4816L29.4624 6.1088H35.4336V8.336H29.4624L29.4816 11.5232H36.1056V14H26.3904L26.448 7.3376ZM39.0031 7.3376L41.2111 0.694399H44.8783L47.1247 7.3376L49.4863 14H46.1455L45.2815 11.1968L42.9967 11.1776L40.7503 11.1968L39.8863 14H36.6607L39.0031 7.3376ZM42.9967 8.8736L44.6671 8.8544L43.0351 3.7664H42.9775L41.3647 8.8544L42.9967 8.8736ZM51.631 8.0672L51.5926 3.1904H48.175V0.694399H58.1014V3.1904H54.703L54.6454 8.0672L54.703 14H51.5734L51.631 8.0672ZM64.5504 14.288C63.2448 14.288 62.112 14.0128 61.152 13.4624C60.192 12.912 59.456 12.1184 58.944 11.0816C58.432 10.032 58.176 8.784 58.176 7.3376C58.176 5.8912 58.432 4.6496 58.944 3.6128C59.456 2.576 60.192 1.7824 61.152 1.232C62.112 0.681599 63.2448 0.406399 64.5504 0.406399C65.8816 0.406399 67.0208 0.681599 67.968 1.232C68.928 1.7696 69.664 2.5568 70.176 3.5936C70.688 4.6304 70.944 5.8784 70.944 7.3376C70.944 8.7712 70.688 10.0128 70.176 11.0624C69.664 12.112 68.928 12.912 67.968 13.4624C67.008 14.0128 65.8688 14.288 64.5504 14.288ZM61.344 7.3376C61.344 8.7328 61.6256 9.8144 62.1888 10.5824C62.752 11.3376 63.5392 11.7152 64.5504 11.7152C65.5616 11.7152 66.3488 11.3376 66.912 10.5824C67.488 9.8144 67.776 8.7328 67.776 7.3376C67.776 5.9168 67.4944 4.8352 66.9312 4.0928C66.368 3.3504 65.5744 2.9792 64.5504 2.9792C63.552 2.9792 62.7648 3.3568 62.1888 4.112C61.6256 4.8672 61.344 5.9424 61.344 7.3376ZM72.5167 7.3376L72.4591 0.694399H77.9695C79.6975 0.694399 80.9967 1.0464 81.8671 1.7504C82.7503 2.4416 83.1919 3.4784 83.1919 4.8608C83.1919 6.4992 82.4879 7.6 81.0799 8.1632C81.5919 8.4064 81.9887 8.7776 82.2703 9.2768C82.5519 9.7632 82.7311 10.3968 82.8079 11.1776C82.8719 11.9072 82.9359 12.496 82.9999 12.944C83.0767 13.392 83.1791 13.744 83.3071 14H80.1583C79.9535 13.5392 79.7999 12.6432 79.6975 11.312C79.6463 10.6976 79.5375 10.2432 79.3711 9.9488C79.2047 9.6544 78.9743 9.456 78.6799 9.3536C78.3855 9.2512 77.9695 9.2 77.4319 9.2H75.5503L75.5887 14H72.4591L72.5167 7.3376ZM77.7583 6.9344C78.5775 6.9344 79.1919 6.7744 79.6015 6.4544C80.0111 6.1344 80.2159 5.6672 80.2159 5.0528C80.2159 3.8112 79.4287 3.1904 77.8543 3.1904H75.5503L75.5311 6.9344H77.7583ZM84.4443 4.4768C85.0331 4.3872 85.4747 4.208 85.7691 3.9392C86.0635 3.6704 86.1979 3.3824 86.1723 3.0752C85.2123 2.9344 84.7323 2.4352 84.7323 1.5776C84.7323 1.1296 84.8795 0.783999 85.1739 0.540799C85.4811 0.284799 85.9099 0.156799 86.4603 0.156799C87.0235 0.156799 87.4395 0.303999 87.7083 0.598399C87.9771 0.879999 88.1115 1.3216 88.1115 1.9232C88.1115 2.832 87.8555 3.632 87.3435 4.3232C86.8443 5.0144 85.9803 5.4368 84.7515 5.5904L84.4443 4.4768ZM94.7958 14.288C93.1062 14.288 91.7814 13.9232 90.8214 13.1936C89.8614 12.464 89.279 11.4272 89.0742 10.0832L91.6086 9.4496C91.8006 10.2304 92.1398 10.8192 92.6262 11.216C93.1126 11.6128 93.8038 11.8112 94.6998 11.8112C95.391 11.8112 95.9158 11.6704 96.2742 11.3888C96.6454 11.1072 96.831 10.7296 96.831 10.256C96.831 9.7824 96.639 9.4112 96.255 9.1424C95.8838 8.8608 95.2438 8.624 94.335 8.432C92.7094 8.0992 91.4998 7.6128 90.7062 6.9728C89.9254 6.32 89.535 5.4176 89.535 4.2656C89.535 3.0496 89.9446 2.1024 90.7638 1.424C91.5958 0.745599 92.7542 0.406399 94.239 0.406399C95.7878 0.406399 97.023 0.758399 97.9446 1.4624C98.8662 2.1536 99.4294 3.0944 99.6342 4.2848L97.0038 4.9568C96.9398 4.3552 96.6774 3.856 96.2166 3.4592C95.7558 3.0624 95.1414 2.864 94.3734 2.864C93.7718 2.864 93.3046 2.992 92.9718 3.248C92.6518 3.4912 92.4918 3.8304 92.4918 4.2656C92.4918 4.7136 92.6774 5.0656 93.0486 5.3216C93.4198 5.5776 94.0726 5.808 95.007 6.0128C96.7222 6.3456 97.9574 6.8512 98.7126 7.5296C99.4806 8.208 99.8646 9.1296 99.8646 10.2944C99.8646 11.5744 99.391 12.56 98.4438 13.2512C97.4966 13.9424 96.2806 14.288 94.7958 14.288ZM106.541 7.0496L104.967 0.694399H108.154L109.268 6.5312L110.113 10.6208H110.17L111.188 6.3776L112.455 0.694399H115.105L116.449 6.3584L117.505 10.6208H117.562L118.407 6.5504L119.501 0.694399H122.554L121.018 7.0304L119.482 14H115.911L114.605 8.7584L113.741 5.0912H113.703L112.858 8.7584L111.553 14H108.058L106.541 7.0496ZM129.013 14.288C127.707 14.288 126.574 14.0128 125.614 13.4624C124.654 12.912 123.918 12.1184 123.406 11.0816C122.894 10.032 122.638 8.784 122.638 7.3376C122.638 5.8912 122.894 4.6496 123.406 3.6128C123.918 2.576 124.654 1.7824 125.614 1.232C126.574 0.681599 127.707 0.406399 129.013 0.406399C130.344 0.406399 131.483 0.681599 132.43 1.232C133.39 1.7696 134.126 2.5568 134.638 3.5936C135.15 4.6304 135.406 5.8784 135.406 7.3376C135.406 8.7712 135.15 10.0128 134.638 11.0624C134.126 12.112 133.39 12.912 132.43 13.4624C131.47 14.0128 130.331 14.288 129.013 14.288ZM125.806 7.3376C125.806 8.7328 126.088 9.8144 126.651 10.5824C127.214 11.3376 128.002 11.7152 129.013 11.7152C130.024 11.7152 130.811 11.3376 131.374 10.5824C131.95 9.8144 132.238 8.7328 132.238 7.3376C132.238 5.9168 131.957 4.8352 131.394 4.0928C130.83 3.3504 130.037 2.9792 129.013 2.9792C128.014 2.9792 127.227 3.3568 126.651 4.112C126.088 4.8672 125.806 5.9424 125.806 7.3376ZM136.979 7.3376L136.922 0.694399H142.432C144.16 0.694399 145.459 1.0464 146.33 1.7504C147.213 2.4416 147.654 3.4784 147.654 4.8608C147.654 6.4992 146.95 7.6 145.542 8.1632C146.054 8.4064 146.451 8.7776 146.733 9.2768C147.014 9.7632 147.194 10.3968 147.27 11.1776C147.334 11.9072 147.398 12.496 147.462 12.944C147.539 13.392 147.642 13.744 147.77 14H144.621C144.416 13.5392 144.262 12.6432 144.16 11.312C144.109 10.6976 144 10.2432 143.834 9.9488C143.667 9.6544 143.437 9.456 143.142 9.3536C142.848 9.2512 142.432 9.2 141.894 9.2H140.013L140.051 14H136.922L136.979 7.3376ZM142.221 6.9344C143.04 6.9344 143.654 6.7744 144.064 6.4544C144.474 6.1344 144.678 5.6672 144.678 5.0528C144.678 3.8112 143.891 3.1904 142.317 3.1904H140.013L139.994 6.9344H142.221ZM149.598 6.7424L149.54 0.694399H152.67L152.612 6.7424L152.651 11.408H158.43V14H149.54L149.598 6.7424ZM159.929 7.3568L159.872 0.694399H164.307C169.081 0.694399 171.468 2.8704 171.468 7.2224C171.468 9.5008 170.873 11.2032 169.683 12.3296C168.505 13.4432 166.713 14 164.307 14H159.872L159.929 7.3568ZM162.963 11.3888H164.288C165.657 11.3888 166.675 11.0496 167.34 10.3712C168.019 9.6928 168.358 8.6432 168.358 7.2224C168.358 4.5984 167.001 3.2864 164.288 3.2864H162.963L162.905 7.3568L162.963 11.3888Z" fill="#FEF8F8"/>
<path d="M3.41893 13.4624L3.26405 13.7194L3.26666 13.7209L3.41893 13.4624ZM1.26853 11.0624L1.53883 10.9323L1.26853 11.0624ZM1.26853 3.6512L1.53883 3.78134L1.53944 3.78005L1.26853 3.6512ZM3.41893 1.2512L3.57119 1.50969L3.57225 1.50906L3.41893 1.2512ZM10.6381 1.6544L10.4446 1.88364V1.88364L10.6381 1.6544ZM12.4237 5.0336L12.5016 5.3233L12.7586 5.25419L12.7207 4.9908L12.4237 5.0336ZM9.63973 5.7824L9.34326 5.82833L9.3945 6.15902L9.71765 6.0721L9.63973 5.7824ZM8.67973 3.7088L8.47035 3.92369L8.47325 3.92644L8.67973 3.7088ZM4.49413 4.1312L4.25027 3.95643L4.24836 3.95916L4.49413 4.1312ZM4.49413 10.5632L4.24834 10.7352L4.25028 10.738L4.49413 10.5632ZM9.67813 8.7008L9.75605 8.4111L9.42815 8.3229L9.38103 8.65917L9.67813 8.7008ZM12.4621 9.4496L12.7594 9.49025L12.7952 9.22851L12.54 9.1599L12.4621 9.4496ZM10.6381 13.0016L10.8336 13.2292L10.8338 13.229L10.6381 13.0016ZM6.74053 13.988C5.50434 13.988 4.45173 13.7226 3.57119 13.2039L3.26666 13.7209C4.25492 14.303 5.41671 14.588 6.74053 14.588V13.988ZM3.57379 13.2055C2.69219 12.6741 2.01416 11.9195 1.53883 10.9323L0.998225 11.1925C1.52129 12.2789 2.27686 13.1243 3.26406 13.7193L3.57379 13.2055ZM1.53883 10.9323C1.06338 9.94478 0.819725 8.75614 0.819725 7.3568H0.219725C0.219725 8.82465 0.475275 10.1064 0.998225 11.1925L1.53883 10.9323ZM0.819725 7.3568C0.819725 5.95745 1.06338 4.76882 1.53883 3.78134L0.998225 3.52105C0.475275 4.60718 0.219725 5.88894 0.219725 7.3568H0.819725ZM1.53944 3.78005C2.01486 2.78046 2.69215 2.02748 3.57119 1.50969L3.26666 0.99271C2.2769 1.57572 1.52059 2.42274 0.997606 3.52235L1.53944 3.78005ZM3.57225 1.50906C4.46601 0.977633 5.52486 0.706399 6.75973 0.706399V0.106399C5.43459 0.106399 4.26624 0.398366 3.2656 0.993338L3.57225 1.50906ZM6.75973 0.706399C8.30649 0.706399 9.52522 1.10753 10.4446 1.88364L10.8316 1.42516C9.77983 0.537269 8.41296 0.106399 6.75973 0.106399V0.706399ZM10.4446 1.88364C11.3676 2.6628 11.9312 3.71948 12.1268 5.0764L12.7207 4.9908C12.5066 3.50612 11.8798 2.31 10.8316 1.42516L10.4446 1.88364ZM12.3458 4.7439L9.56181 5.49269L9.71765 6.0721L12.5016 5.3233L12.3458 4.7439ZM9.93619 5.73647C9.78863 4.78404 9.44755 4.02372 8.8862 3.49116L8.47325 3.92644C8.9103 4.34108 9.20922 4.96316 9.34326 5.82833L9.93619 5.73647ZM8.88908 3.49393C8.32892 2.94813 7.62436 2.6792 6.79813 2.6792V3.2792C7.48229 3.2792 8.03213 3.49667 8.47037 3.92367L8.88908 3.49393ZM6.79813 2.6792C5.72073 2.6792 4.85983 3.10591 4.25028 3.95644L4.73797 4.30596C5.22922 3.62049 5.90432 3.2792 6.79813 3.2792V2.6792ZM4.24836 3.95916C3.66233 4.79633 3.38773 5.94058 3.38773 7.3568H3.98773C3.98773 6.00822 4.25072 5.00206 4.73989 4.30324L4.24836 3.95916ZM3.38773 7.3568C3.38773 8.76092 3.66261 9.89846 4.24836 10.7352L4.73989 10.3912C4.25044 9.69194 3.98773 8.69188 3.98773 7.3568H3.38773ZM4.25028 10.738C4.85897 11.5873 5.7128 12.0152 6.77893 12.0152V11.4152C5.89945 11.4152 5.23008 11.0751 4.73797 10.3884L4.25028 10.738ZM6.77893 12.0152C7.66985 12.0152 8.40822 11.7415 8.95835 11.1696C9.50122 10.6051 9.82948 9.7825 9.97522 8.74243L9.38103 8.65917C9.24517 9.62869 8.94943 10.3133 8.5259 10.7536C8.10963 11.1865 7.5392 11.4152 6.77893 11.4152V12.0152ZM9.60021 8.9905L12.3842 9.7393L12.54 9.1599L9.75605 8.4111L9.60021 8.9905ZM12.1649 9.40895C11.9686 10.8443 11.3907 11.958 10.4424 12.7742L10.8338 13.229C11.9079 12.3044 12.546 11.0501 12.7594 9.49025L12.1649 9.40895ZM10.4426 12.774C9.50975 13.5754 8.28493 13.988 6.74053 13.988V14.588C8.39613 14.588 9.7697 14.143 10.8336 13.2292L10.4426 12.774ZM13.8292 7.3376L14.1293 7.34019L14.1292 7.335L13.8292 7.3376ZM13.7716 0.694399V0.394399H13.469L13.4716 0.697L13.7716 0.694399ZM23.1796 1.7504L22.9909 1.98368L22.9947 1.98665L23.1796 1.7504ZM22.3924 8.1632L22.281 7.88466L21.6436 8.13962L22.2637 8.43418L22.3924 8.1632ZM23.5828 9.2768L23.3215 9.4242L23.3232 9.42711L23.5828 9.2768ZM24.1204 11.1776L24.4193 11.1514L24.419 11.1482L24.1204 11.1776ZM24.3124 12.944L24.0153 12.9864L24.0167 12.9947L24.3124 12.944ZM24.6196 14V14.3H25.105L24.888 13.8658L24.6196 14ZM21.4708 14L21.1967 14.1218L21.2759 14.3H21.4708V14ZM21.01 11.312L21.3091 11.289L21.309 11.2871L21.01 11.312ZM19.9924 9.3536L20.091 9.07025L19.9924 9.3536ZM16.8628 9.2V8.9H16.5604L16.5628 9.2024L16.8628 9.2ZM16.9012 14V14.3H17.2036L17.2012 13.9976L16.9012 14ZM13.7716 14L13.4716 13.9974L13.469 14.3H13.7716V14ZM20.914 6.4544L21.0987 6.69081H21.0987L20.914 6.4544ZM16.8628 3.1904V2.8904H16.5644L16.5628 3.18886L16.8628 3.1904ZM16.8436 6.9344L16.5436 6.93286L16.5421 7.2344H16.8436V6.9344ZM14.1292 7.335L14.0716 0.691798L13.4716 0.697L13.5292 7.3402L14.1292 7.335ZM13.7716 0.994399H19.282V0.394399H13.7716V0.994399ZM19.282 0.994399C20.9768 0.994399 22.1962 1.34081 22.991 1.98365L23.3683 1.51715C22.4223 0.751989 21.0433 0.394399 19.282 0.394399V0.994399ZM22.9947 1.98665C23.7884 2.60781 24.2044 3.54693 24.2044 4.8608H24.8044C24.8044 3.40987 24.3372 2.27539 23.3645 1.51415L22.9947 1.98665ZM24.2044 4.8608C24.2044 5.63721 24.0379 6.26233 23.7237 6.75357C23.4106 7.24307 22.9365 7.62246 22.281 7.88466L22.5038 8.44174C23.2563 8.14074 23.8382 7.68813 24.2292 7.07683C24.619 6.46727 24.8044 5.72279 24.8044 4.8608H24.2044ZM22.2637 8.43418C22.7192 8.65053 23.07 8.97823 23.3215 9.4242L23.8441 9.1294C23.5325 8.57697 23.0897 8.16227 22.5211 7.89222L22.2637 8.43418ZM23.3232 9.42711C23.5766 9.86481 23.7477 10.453 23.8219 11.207L24.419 11.1482C24.3395 10.3406 24.1523 9.66159 23.8425 9.12649L23.3232 9.42711ZM23.8216 11.2038C23.8858 11.936 23.9504 12.5308 24.0154 12.9864L24.6094 12.9016C24.5465 12.4612 24.4831 11.8784 24.4193 11.1514L23.8216 11.2038ZM24.0167 12.9947C24.096 13.4568 24.2047 13.8411 24.3513 14.1342L24.888 13.8658C24.7785 13.6469 24.6825 13.3272 24.6081 12.8933L24.0167 12.9947ZM24.6196 13.7H21.4708V14.3H24.6196V13.7ZM21.745 13.8782C21.564 13.4709 21.4119 12.6246 21.3091 11.289L20.7109 11.335C20.813 12.6618 20.9681 13.6075 21.1967 14.1218L21.745 13.8782ZM21.309 11.2871C21.2567 10.6593 21.1435 10.1527 20.9448 9.80118L20.4225 10.0964C20.5566 10.3337 20.661 10.7359 20.7111 11.3369L21.309 11.2871ZM20.9448 9.80118C20.7458 9.44911 20.4604 9.19873 20.091 9.07025L19.8939 9.63695C20.1133 9.71327 20.2887 9.85969 20.4225 10.0964L20.9448 9.80118ZM20.091 9.07025C19.75 8.95164 19.2949 8.9 18.7444 8.9V9.5C19.2691 9.5 19.6461 9.55076 19.8939 9.63695L20.091 9.07025ZM18.7444 8.9H16.8628V9.5H18.7444V8.9ZM16.5628 9.2024L16.6012 14.0024L17.2012 13.9976L17.1628 9.1976L16.5628 9.2024ZM16.9012 13.7H13.7716V14.3H16.9012V13.7ZM14.0716 14.0026L14.1292 7.34019L13.5292 7.33501L13.4716 13.9974L14.0716 14.0026ZM19.0708 7.2344C19.9209 7.2344 20.6136 7.06978 21.0987 6.69081L20.7293 6.21799C20.3952 6.47902 19.8592 6.6344 19.0708 6.6344V7.2344ZM21.0987 6.69081C21.5948 6.30328 21.8284 5.7407 21.8284 5.0528H21.2284C21.2284 5.5937 21.0525 5.96552 20.7293 6.21799L21.0987 6.69081ZM21.8284 5.0528C21.8284 4.36428 21.6066 3.80117 21.1238 3.42044C20.6546 3.05041 19.9853 2.8904 19.1668 2.8904V3.4904C19.9227 3.4904 20.4343 3.64079 20.7523 3.89156C21.0567 4.13163 21.2284 4.49971 21.2284 5.0528H21.8284ZM19.1668 2.8904H16.8628V3.4904H19.1668V2.8904ZM16.5628 3.18886L16.5436 6.93286L17.1436 6.93594L17.1628 3.19194L16.5628 3.18886ZM16.8436 7.2344H19.0708V6.6344H16.8436V7.2344ZM26.448 7.3376L26.748 7.34019L26.748 7.335L26.448 7.3376ZM26.3904 0.694399V0.394399H26.0878L26.0904 0.697L26.3904 0.694399ZM35.9328 0.694399H36.2328V0.394399H35.9328V0.694399ZM35.9328 3.1712V3.4712H36.2328V3.1712H35.9328ZM29.4816 3.1712V2.8712H29.1835L29.1816 3.16924L29.4816 3.1712ZM29.4624 6.1088L29.1624 6.10684L29.1604 6.4088H29.4624V6.1088ZM35.4336 6.1088H35.7336V5.8088H35.4336V6.1088ZM35.4336 8.336V8.636H35.7336V8.336H35.4336ZM29.4624 8.336V8.036H29.1606L29.1624 8.33781L29.4624 8.336ZM29.4816 11.5232L29.1816 11.525L29.1834 11.8232H29.4816V11.5232ZM36.1056 11.5232H36.4056V11.2232H36.1056V11.5232ZM36.1056 14V14.3H36.4056V14H36.1056ZM26.3904 14L26.0904 13.9974L26.0878 14.3H26.3904V14ZM26.748 7.335L26.6904 0.691798L26.0904 0.697L26.148 7.3402L26.748 7.335ZM26.3904 0.994399H35.9328V0.394399H26.3904V0.994399ZM35.6328 0.694399V3.1712H36.2328V0.694399H35.6328ZM35.9328 2.8712H29.4816V3.4712H35.9328V2.8712ZM29.1816 3.16924L29.1624 6.10684L29.7624 6.11076L29.7816 3.17316L29.1816 3.16924ZM29.4624 6.4088H35.4336V5.8088H29.4624V6.4088ZM35.1336 6.1088V8.336H35.7336V6.1088H35.1336ZM35.4336 8.036H29.4624V8.636H35.4336V8.036ZM29.1624 8.33781L29.1816 11.525L29.7816 11.5214L29.7624 8.33419L29.1624 8.33781ZM29.4816 11.8232H36.1056V11.2232H29.4816V11.8232ZM35.8056 11.5232V14H36.4056V11.5232H35.8056ZM36.1056 13.7H26.3904V14.3H36.1056V13.7ZM26.6904 14.0026L26.748 7.34019L26.148 7.33501L26.0904 13.9974L26.6904 14.0026ZM39.0031 7.3376L39.2862 7.43712L39.2878 7.43222L39.0031 7.3376ZM41.2111 0.694399V0.394399H40.9947L40.9264 0.599778L41.2111 0.694399ZM44.8783 0.694399L45.1625 0.5983L45.0936 0.394399H44.8783V0.694399ZM47.1247 7.3376L46.8405 7.43371L46.842 7.43783L47.1247 7.3376ZM49.4863 14V14.3H49.911L49.7691 13.8998L49.4863 14ZM46.1455 14L45.8588 14.0884L45.9241 14.3H46.1455V14ZM45.2815 11.1968L45.5682 11.1084L45.5036 10.8987L45.284 10.8968L45.2815 11.1968ZM42.9967 11.1776L42.9992 10.8776L42.9942 10.8776L42.9967 11.1776ZM40.7503 11.1968L40.7478 10.8968L40.5283 10.8987L40.4636 11.1084L40.7503 11.1968ZM39.8863 14V14.3H40.1078L40.173 14.0884L39.8863 14ZM36.6607 14L36.3777 13.9005L36.2372 14.3H36.6607V14ZM42.9967 8.8736L42.9932 9.17366L43.0002 9.17358L42.9967 8.8736ZM44.6671 8.8544L44.6706 9.15438L45.0769 9.14971L44.9528 8.76277L44.6671 8.8544ZM43.0351 3.7664L43.3208 3.67477L43.254 3.4664H43.0351V3.7664ZM42.9775 3.7664V3.4664H42.7579L42.6916 3.67575L42.9775 3.7664ZM41.3647 8.8544L41.0788 8.76375L40.9564 9.14962L41.3612 9.15438L41.3647 8.8544ZM39.2878 7.43222L41.4958 0.789021L40.9264 0.599778L38.7184 7.24298L39.2878 7.43222ZM41.2111 0.994399H44.8783V0.394399H41.2111V0.994399ZM44.5941 0.790498L46.8405 7.4337L47.4089 7.2415L45.1625 0.5983L44.5941 0.790498ZM46.842 7.43783L49.2036 14.1002L49.7691 13.8998L47.4075 7.23737L46.842 7.43783ZM49.4863 13.7H46.1455V14.3H49.4863V13.7ZM46.4322 13.9116L45.5682 11.1084L44.9948 11.2852L45.8588 14.0884L46.4322 13.9116ZM45.284 10.8968L42.9992 10.8776L42.9942 11.4776L45.279 11.4968L45.284 10.8968ZM42.9942 10.8776L40.7478 10.8968L40.7529 11.4968L42.9993 11.4776L42.9942 10.8776ZM40.4636 11.1084L39.5996 13.9116L40.173 14.0884L41.037 11.2852L40.4636 11.1084ZM39.8863 13.7H36.6607V14.3H39.8863V13.7ZM36.9437 14.0995L39.2861 7.4371L38.7201 7.2381L36.3777 13.9005L36.9437 14.0995ZM43.0002 9.17358L44.6706 9.15438L44.6637 8.55442L42.9933 8.57362L43.0002 9.17358ZM44.9528 8.76277L43.3208 3.67477L42.7495 3.85803L44.3815 8.94603L44.9528 8.76277ZM43.0351 3.4664H42.9775V4.0664H43.0351V3.4664ZM42.6916 3.67575L41.0788 8.76375L41.6507 8.94505L43.2635 3.85705L42.6916 3.67575ZM41.3612 9.15438L42.9932 9.17358L43.0003 8.57362L41.3683 8.55442L41.3612 9.15438ZM51.631 8.0672L51.9311 8.07011L51.931 8.06484L51.631 8.0672ZM51.5926 3.1904L51.8926 3.18804L51.8903 2.8904H51.5926V3.1904ZM48.175 3.1904H47.875V3.4904H48.175V3.1904ZM48.175 0.694399V0.394399H47.875V0.694399H48.175ZM58.1014 0.694399H58.4014V0.394399H58.1014V0.694399ZM58.1014 3.1904V3.4904H58.4014V3.1904H58.1014ZM54.703 3.1904V2.8904H54.4065L54.403 3.18686L54.703 3.1904ZM54.6454 8.0672L54.3454 8.06366L54.3454 8.07011L54.6454 8.0672ZM54.703 14V14.3H55.006L55.003 13.9971L54.703 14ZM51.5734 14L51.2734 13.9971L51.2705 14.3H51.5734V14ZM51.931 8.06484L51.8926 3.18804L51.2926 3.19276L51.331 8.06956L51.931 8.06484ZM51.5926 2.8904H48.175V3.4904H51.5926V2.8904ZM48.475 3.1904V0.694399H47.875V3.1904H48.475ZM48.175 0.994399H58.1014V0.394399H48.175V0.994399ZM57.8014 0.694399V3.1904H58.4014V0.694399H57.8014ZM58.1014 2.8904H54.703V3.4904H58.1014V2.8904ZM54.403 3.18686L54.3454 8.06366L54.9454 8.07074L55.003 3.19394L54.403 3.18686ZM54.3454 8.07011L54.403 14.0029L55.003 13.9971L54.9454 8.06429L54.3454 8.07011ZM54.703 13.7H51.5734V14.3H54.703V13.7ZM51.8734 14.0029L51.931 8.07011L51.331 8.06429L51.2734 13.9971L51.8734 14.0029ZM61.152 13.4624L61.0028 13.7227V13.7227L61.152 13.4624ZM58.944 11.0816L58.6743 11.2131L58.675 11.2144L58.944 11.0816ZM58.944 3.6128L59.213 3.74563L58.944 3.6128ZM61.152 1.232L61.0028 0.97174L61.152 1.232ZM67.968 1.232L67.8172 1.49142L67.8214 1.49375L67.968 1.232ZM70.176 3.5936L69.907 3.72643V3.72643L70.176 3.5936ZM70.176 11.0624L69.9063 10.9309L70.176 11.0624ZM67.968 13.4624L68.1172 13.7227V13.7227L67.968 13.4624ZM62.1888 10.5824L61.9468 10.7598L61.9483 10.7617L62.1888 10.5824ZM66.912 10.5824L66.672 10.4024L66.6715 10.4031L66.912 10.5824ZM66.9312 4.0928L67.1702 3.91148V3.91148L66.9312 4.0928ZM62.1888 4.112L61.9502 3.93005L61.9483 3.93265L62.1888 4.112ZM64.5504 13.988C63.2877 13.988 62.2082 13.7222 61.3012 13.2021L61.0028 13.7227C62.0157 14.3034 63.2019 14.588 64.5504 14.588V13.988ZM61.3012 13.2021C60.3953 12.6828 59.6998 11.9347 59.213 10.9488L58.675 11.2144C59.2121 12.3021 59.9887 13.1412 61.0028 13.7227L61.3012 13.2021ZM59.2136 10.9501C58.7258 9.95003 58.476 8.74906 58.476 7.3376H57.876C57.876 8.81894 58.1382 10.114 58.6743 11.2131L59.2136 10.9501ZM58.476 7.3376C58.476 5.92599 58.7258 4.73208 59.213 3.74563L58.675 3.47997C58.1381 4.56712 57.876 5.85641 57.876 7.3376H58.476ZM59.213 3.74563C59.6998 2.75972 60.3953 2.01164 61.3012 1.49226L61.0028 0.97174C59.9887 1.55315 59.2121 2.39228 58.675 3.47997L59.213 3.74563ZM61.3012 1.49226C62.2082 0.972235 63.2877 0.706399 64.5504 0.706399V0.106399C63.2019 0.106399 62.0157 0.390964 61.0028 0.97174L61.3012 1.49226ZM64.5504 0.706399C65.84 0.706399 66.9247 0.972768 67.8173 1.49139L68.1187 0.972611C67.1168 0.39043 65.9232 0.106399 64.5504 0.106399V0.706399ZM67.8214 1.49375C68.7257 2.00017 69.4204 2.74106 69.907 3.72643L70.445 3.46076C69.9076 2.37254 69.1302 1.53902 68.1146 0.970247L67.8214 1.49375ZM69.907 3.72643C70.394 4.71255 70.644 5.91273 70.644 7.3376H71.244C71.244 5.84407 70.982 4.54825 70.445 3.46076L69.907 3.72643ZM70.644 7.3376C70.644 8.7358 70.3943 9.9305 69.9063 10.9309L70.4456 11.1939C70.9816 10.0951 71.244 8.8066 71.244 7.3376H70.644ZM69.9063 10.9309C69.4192 11.9296 68.7237 12.6833 67.8188 13.2021L68.1172 13.7227C69.1323 13.1407 69.9088 12.2944 70.4456 11.1939L69.9063 10.9309ZM67.8188 13.2021C66.9122 13.7219 65.8265 13.988 64.5504 13.988V14.588C65.9111 14.588 67.1038 14.3037 68.1172 13.7227L67.8188 13.2021ZM61.044 7.3376C61.044 8.76822 61.332 9.92141 61.9469 10.7598L62.4307 10.405C61.9191 9.70739 61.644 8.69738 61.644 7.3376H61.044ZM61.9483 10.7617C62.5728 11.5991 63.4525 12.0152 64.5504 12.0152V11.4152C63.6258 11.4152 62.9312 11.0761 62.4293 10.4031L61.9483 10.7617ZM64.5504 12.0152C65.6482 12.0152 66.528 11.5991 67.1525 10.7617L66.6715 10.4031C66.1696 11.0761 65.4749 11.4152 64.5504 11.4152V12.0152ZM67.152 10.7624C67.781 9.92365 68.076 8.7694 68.076 7.3376H67.476C67.476 8.6962 67.1949 9.70515 66.672 10.4024L67.152 10.7624ZM68.076 7.3376C68.076 5.88381 67.7889 4.72706 67.1702 3.91148L66.6922 4.27412C67.1999 4.94334 67.476 5.94979 67.476 7.3376H68.076ZM67.1702 3.91148C66.5441 3.08619 65.6575 2.6792 64.5504 2.6792V3.2792C65.4912 3.2792 66.1919 3.61461 66.6922 4.27412L67.1702 3.91148ZM64.5504 2.6792C63.464 2.6792 62.5863 3.09613 61.9502 3.93006L62.4273 4.29393C62.9433 3.61746 63.64 3.2792 64.5504 3.2792V2.6792ZM61.9483 3.93265C61.3318 4.75925 61.044 5.90744 61.044 7.3376H61.644C61.644 5.97736 61.9193 4.97515 62.4293 4.29135L61.9483 3.93265ZM72.5167 7.3376L72.8168 7.34019L72.8167 7.335L72.5167 7.3376ZM72.4591 0.694399V0.394399H72.1565L72.1591 0.697L72.4591 0.694399ZM81.8671 1.7504L81.6784 1.98368L81.6822 1.98665L81.8671 1.7504ZM81.0799 8.1632L80.9685 7.88466L80.3311 8.13962L80.9512 8.43418L81.0799 8.1632ZM82.2703 9.2768L82.009 9.4242L82.0107 9.42711L82.2703 9.2768ZM82.8079 11.1776L83.1068 11.1514L83.1065 11.1482L82.8079 11.1776ZM82.9999 12.944L82.7028 12.9864L82.7042 12.9947L82.9999 12.944ZM83.3071 14V14.3H83.7925L83.5755 13.8658L83.3071 14ZM80.1583 14L79.8842 14.1218L79.9634 14.3H80.1583V14ZM79.6975 11.312L79.9967 11.289L79.9965 11.2871L79.6975 11.312ZM78.6799 9.3536L78.7785 9.07025L78.6799 9.3536ZM75.5503 9.2V8.9H75.2479L75.2503 9.2024L75.5503 9.2ZM75.5887 14V14.3H75.8911L75.8887 13.9976L75.5887 14ZM72.4591 14L72.1591 13.9974L72.1565 14.3H72.4591V14ZM79.6015 6.4544L79.7862 6.69081L79.6015 6.4544ZM75.5503 3.1904V2.8904H75.2519L75.2503 3.18886L75.5503 3.1904ZM75.5311 6.9344L75.2311 6.93286L75.2296 7.2344H75.5311V6.9344ZM72.8167 7.335L72.7591 0.691798L72.1591 0.697L72.2167 7.3402L72.8167 7.335ZM72.4591 0.994399H77.9695V0.394399H72.4591V0.994399ZM77.9695 0.994399C79.6643 0.994399 80.8837 1.34081 81.6785 1.98365L82.0558 1.51715C81.1098 0.751989 79.7308 0.394399 77.9695 0.394399V0.994399ZM81.6822 1.98665C82.4759 2.60781 82.8919 3.54693 82.8919 4.8608H83.4919C83.4919 3.40987 83.0247 2.27539 82.052 1.51415L81.6822 1.98665ZM82.8919 4.8608C82.8919 5.63721 82.7254 6.26233 82.4112 6.75357C82.0981 7.24307 81.624 7.62246 80.9685 7.88466L81.1913 8.44174C81.9439 8.14074 82.5257 7.68813 82.9167 7.07683C83.3065 6.46727 83.4919 5.72279 83.4919 4.8608H82.8919ZM80.9512 8.43418C81.4067 8.65053 81.7575 8.97823 82.009 9.4242L82.5316 9.1294C82.22 8.57697 81.7772 8.16227 81.2086 7.89222L80.9512 8.43418ZM82.0107 9.42711C82.2641 9.86481 82.4352 10.453 82.5094 11.207L83.1065 11.1482C83.027 10.3406 82.8398 9.66159 82.53 9.12649L82.0107 9.42711ZM82.5091 11.2038C82.5733 11.936 82.6379 12.5308 82.7029 12.9864L83.2969 12.9016C83.234 12.4612 83.1706 11.8784 83.1068 11.1514L82.5091 11.2038ZM82.7042 12.9947C82.7835 13.4568 82.8923 13.8411 83.0388 14.1342L83.5755 13.8658C83.466 13.6469 83.37 13.3272 83.2956 12.8933L82.7042 12.9947ZM83.3071 13.7H80.1583V14.3H83.3071V13.7ZM80.4325 13.8782C80.2515 13.4709 80.0994 12.6246 79.9966 11.289L79.3984 11.335C79.5005 12.6618 79.6556 13.6075 79.8842 14.1218L80.4325 13.8782ZM79.9965 11.2871C79.9442 10.6593 79.831 10.1527 79.6323 9.80118L79.11 10.0964C79.2441 10.3337 79.3485 10.7359 79.3986 11.3369L79.9965 11.2871ZM79.6323 9.80118C79.4333 9.44911 79.1479 9.19873 78.7785 9.07025L78.5814 9.63695C78.8008 9.71327 78.9762 9.85969 79.11 10.0964L79.6323 9.80118ZM78.7785 9.07025C78.4375 8.95164 77.9825 8.9 77.4319 8.9V9.5C77.9566 9.5 78.3336 9.55076 78.5814 9.63695L78.7785 9.07025ZM77.4319 8.9H75.5503V9.5H77.4319V8.9ZM75.2503 9.2024L75.2887 14.0024L75.8887 13.9976L75.8503 9.1976L75.2503 9.2024ZM75.5887 13.7H72.4591V14.3H75.5887V13.7ZM72.7591 14.0026L72.8167 7.34019L72.2167 7.33501L72.1591 13.9974L72.7591 14.0026ZM77.7583 7.2344C78.6084 7.2344 79.3011 7.06978 79.7862 6.69081L79.4168 6.21799C79.0827 6.47902 78.5467 6.6344 77.7583 6.6344V7.2344ZM79.7862 6.69081C80.2823 6.30328 80.5159 5.7407 80.5159 5.0528H79.9159C79.9159 5.5937 79.74 5.96552 79.4168 6.21799L79.7862 6.69081ZM80.5159 5.0528C80.5159 4.36428 80.2941 3.80117 79.8113 3.42044C79.3421 3.05041 78.6728 2.8904 77.8543 2.8904V3.4904C78.6102 3.4904 79.1218 3.64079 79.4398 3.89156C79.7442 4.13163 79.9159 4.49971 79.9159 5.0528H80.5159ZM77.8543 2.8904H75.5503V3.4904H77.8543V2.8904ZM75.2503 3.18886L75.2311 6.93286L75.8311 6.93594L75.8503 3.19194L75.2503 3.18886ZM75.5311 7.2344H77.7583V6.6344H75.5311V7.2344ZM84.4443 4.4768L84.3991 4.18021L84.0653 4.23102L84.1551 4.55658L84.4443 4.4768ZM85.7691 3.9392L85.5668 3.71765V3.71765L85.7691 3.9392ZM86.1723 3.0752L86.4712 3.05029L86.4515 2.81294L86.2158 2.77838L86.1723 3.0752ZM85.1739 0.540799L85.3649 0.772089L85.3659 0.771265L85.1739 0.540799ZM87.7083 0.598399L87.4867 0.80073L87.4913 0.805542L87.7083 0.598399ZM87.3435 4.3232L87.1024 4.14462L87.1003 4.14755L87.3435 4.3232ZM84.7515 5.5904L84.4623 5.67018L84.5313 5.92026L84.7887 5.88808L84.7515 5.5904ZM84.4894 4.77339C85.1096 4.679 85.6165 4.48477 85.9714 4.16074L85.5668 3.71765C85.3329 3.93122 84.9565 4.09539 84.3991 4.18021L84.4894 4.77339ZM85.9714 4.16074C86.3125 3.84929 86.5067 3.47628 86.4712 3.05029L85.8733 3.10011C85.889 3.28852 85.8145 3.49151 85.5668 3.71765L85.9714 4.16074ZM86.2158 2.77838C85.7758 2.71384 85.4871 2.57296 85.3085 2.38727C85.1344 2.20616 85.0323 1.94833 85.0323 1.5776H84.4323C84.4323 2.06447 84.5702 2.48504 84.876 2.80313C85.1775 3.11663 85.6088 3.29576 86.1287 3.37202L86.2158 2.77838ZM85.0323 1.5776C85.0323 1.20184 85.1518 0.948154 85.3649 0.772087L84.9828 0.30951C84.6071 0.619843 84.4323 1.05736 84.4323 1.5776H85.0323ZM85.3659 0.771265C85.602 0.574552 85.9538 0.456799 86.4603 0.456799V-0.143201C85.866 -0.143201 85.3602 -0.0049541 84.9818 0.310332L85.3659 0.771265ZM86.4603 0.456799C86.9749 0.456799 87.2951 0.59075 87.4867 0.80068L87.9298 0.396118C87.5839 0.0172484 87.0721 -0.143201 86.4603 -0.143201V0.456799ZM87.4913 0.805542C87.6841 1.00753 87.8115 1.35795 87.8115 1.9232H88.4115C88.4115 1.28524 88.2701 0.752471 87.9253 0.391256L87.4913 0.805542ZM87.8115 1.9232C87.8115 2.77157 87.5739 3.50813 87.1024 4.14463L87.5845 4.50177C88.1371 3.75587 88.4115 2.89243 88.4115 1.9232H87.8115ZM87.1003 4.14755C86.6684 4.74555 85.8983 5.14472 84.7143 5.29272L84.7887 5.88808C86.0623 5.72888 87.0202 5.28325 87.5867 4.49885L87.1003 4.14755ZM85.0407 5.51062L84.7335 4.39702L84.1551 4.55658L84.4623 5.67018L85.0407 5.51062ZM90.8214 13.1936L91.0029 12.9548L90.8214 13.1936ZM89.0742 10.0832L89.0014 9.79216L88.7365 9.8584L88.7776 10.1284L89.0742 10.0832ZM91.6086 9.4496L91.8999 9.37796L91.828 9.08551L91.5358 9.15856L91.6086 9.4496ZM96.2742 11.3888L96.0928 11.1498L96.0888 11.1529L96.2742 11.3888ZM96.255 9.1424L96.0735 9.38158L96.0829 9.38817L96.255 9.1424ZM94.335 8.432L94.397 8.13847L94.3951 8.13809L94.335 8.432ZM90.7062 6.9728L90.5137 7.20299L90.5179 7.20632L90.7062 6.9728ZM90.7638 1.424L90.5742 1.19149L90.5724 1.19294L90.7638 1.424ZM97.9446 1.4624L97.7625 1.70081L97.7646 1.7024L97.9446 1.4624ZM99.6342 4.2848L99.7084 4.57546L99.9768 4.5069L99.9298 4.23393L99.6342 4.2848ZM97.0038 4.9568L96.7055 4.98853L96.7421 5.33328L97.078 5.24746L97.0038 4.9568ZM96.2166 3.4592L96.4123 3.23187V3.23187L96.2166 3.4592ZM92.9718 3.248L93.1533 3.48685L93.1547 3.48579L92.9718 3.248ZM93.0486 5.3216L92.8783 5.56856H92.8783L93.0486 5.3216ZM95.007 6.0128L94.9427 6.30593L94.9498 6.30731L95.007 6.0128ZM98.7126 7.5296L98.5121 7.75278L98.514 7.75444L98.7126 7.5296ZM94.7958 13.988C93.146 13.988 91.8934 13.6315 91.0029 12.9548L90.6399 13.4324C91.6694 14.2149 93.0663 14.588 94.7958 14.588V13.988ZM91.0029 12.9548C90.113 12.2785 89.5654 11.3156 89.3708 10.038L88.7776 10.1284C88.9925 11.5388 89.6097 12.6495 90.6399 13.4324L91.0029 12.9548ZM89.1469 10.3742L91.6813 9.74064L91.5358 9.15856L89.0014 9.79216L89.1469 10.3742ZM91.3173 9.52124C91.5204 10.3474 91.8871 11.0002 92.4365 11.4485L92.8158 10.9835C92.3925 10.6382 92.0808 10.1134 91.8999 9.37796L91.3173 9.52124ZM92.4365 11.4485C92.9953 11.9043 93.7636 12.1112 94.6998 12.1112V11.5112C93.844 11.5112 93.2299 11.3213 92.8158 10.9835L92.4365 11.4485ZM94.6998 12.1112C95.4252 12.1112 96.0271 11.9644 96.4595 11.6247L96.0888 11.1529C95.8044 11.3764 95.3568 11.5112 94.6998 11.5112V12.1112ZM96.4555 11.6278C96.9029 11.2884 97.131 10.8216 97.131 10.256H96.531C96.531 10.6376 96.3879 10.926 96.0929 11.1498L96.4555 11.6278ZM97.131 10.256C97.131 9.68572 96.8922 9.22226 96.427 8.89663L96.0829 9.38817C96.3858 9.60014 96.531 9.87908 96.531 10.256H97.131ZM96.4363 8.90339C96.0096 8.57972 95.3144 8.3323 94.397 8.13848L94.273 8.72552C95.1731 8.9157 95.7579 9.14188 96.0737 9.38141L96.4363 8.90339ZM94.3951 8.13809C92.7903 7.80955 91.6345 7.33602 90.8945 6.73927L90.5179 7.20632C91.3651 7.88958 92.6284 8.38885 94.2748 8.7259L94.3951 8.13809ZM90.8986 6.74264C90.1955 6.15478 89.835 5.34189 89.835 4.2656H89.235C89.235 5.49331 89.6553 6.48522 90.5138 7.20296L90.8986 6.74264ZM89.835 4.2656C89.835 3.12461 90.2151 2.2679 90.9551 1.65506L90.5724 1.19294C89.6741 1.9369 89.235 2.97459 89.235 4.2656H89.835ZM90.9534 1.6565C91.7145 1.03586 92.7971 0.706399 94.239 0.706399V0.106399C92.7113 0.106399 91.477 0.455339 90.5742 1.19149L90.9534 1.6565ZM94.239 0.706399C95.7439 0.706399 96.9083 1.0483 97.7625 1.7008L98.1267 1.224C97.1377 0.468497 95.8316 0.106399 94.239 0.106399V0.706399ZM97.7646 1.7024C98.6217 2.34523 99.146 3.21672 99.3385 4.33566L99.9298 4.23393C99.7127 2.97208 99.1107 1.96197 98.1246 1.2224L97.7646 1.7024ZM99.5599 3.99413L96.9295 4.66613L97.078 5.24746L99.7084 4.57546L99.5599 3.99413ZM97.3021 4.92506C97.23 4.24716 96.9306 3.67817 96.4123 3.23187L96.0208 3.68653C96.4241 4.03383 96.6496 4.46324 96.7055 4.98853L97.3021 4.92506ZM96.4123 3.23187C95.884 2.77688 95.1938 2.564 94.3734 2.564V3.164C95.089 3.164 95.6276 3.34791 96.0208 3.68653L96.4123 3.23187ZM94.3734 2.564C93.7334 2.564 93.1925 2.69969 92.7889 3.01021L93.1547 3.48579C93.4166 3.2843 93.8102 3.164 94.3734 3.164V2.564ZM92.7903 3.00915C92.3887 3.3143 92.1918 3.74562 92.1918 4.2656H92.7918C92.7918 3.91518 92.9148 3.6681 93.1533 3.48685L92.7903 3.00915ZM92.1918 4.2656C92.1918 4.813 92.4265 5.257 92.8783 5.56856L93.2189 5.07464C92.9283 4.8742 92.7918 4.6142 92.7918 4.2656H92.1918ZM92.8783 5.56856C93.3009 5.86003 94.0034 6.09996 94.9427 6.30584L95.0712 5.71976C94.1418 5.51604 93.5387 5.29517 93.2189 5.07464L92.8783 5.56856ZM94.9498 6.30731C96.6454 6.6363 97.8169 7.12831 98.5121 7.75278L98.9131 7.30642C98.0978 6.57409 96.7989 6.05489 95.0641 5.71829L94.9498 6.30731ZM98.514 7.75444C99.2083 8.36779 99.5646 9.20256 99.5646 10.2944H100.165C100.165 9.05664 99.7528 8.04821 98.9112 7.30476L98.514 7.75444ZM99.5646 10.2944C99.5646 11.4888 99.1289 12.3799 98.2669 13.0089L98.6206 13.4935C99.6531 12.7401 100.165 11.66 100.165 10.2944H99.5646ZM98.2669 13.0089C97.3833 13.6537 96.2341 13.988 94.7958 13.988V14.588C96.3271 14.588 97.6098 14.2311 98.6206 13.4935L98.2669 13.0089ZM106.541 7.0496L106.835 6.98561L106.833 6.97746L106.541 7.0496ZM104.967 0.694399V0.394399H104.584L104.676 0.766539L104.967 0.694399ZM108.154 0.694399L108.449 0.638176L108.402 0.394399H108.154V0.694399ZM109.268 6.5312L108.973 6.58743L108.974 6.59189L109.268 6.5312ZM110.113 10.6208L109.819 10.6815L109.868 10.9208H110.113V10.6208ZM110.17 10.6208V10.9208H110.407L110.462 10.6908L110.17 10.6208ZM111.188 6.3776L111.48 6.44757L111.481 6.44289L111.188 6.3776ZM112.455 0.694399V0.394399H112.215L112.162 0.629111L112.455 0.694399ZM115.105 0.694399L115.396 0.625136L115.342 0.394399H115.105V0.694399ZM116.449 6.3584L116.157 6.42767L116.157 6.43054L116.449 6.3584ZM117.505 10.6208L117.213 10.6929L117.27 10.9208H117.505V10.6208ZM117.562 10.6208V10.9208H117.806L117.856 10.6818L117.562 10.6208ZM118.407 6.5504L118.701 6.61138L118.702 6.60551L118.407 6.5504ZM119.501 0.694399V0.394399H119.252L119.206 0.639288L119.501 0.694399ZM122.554 0.694399L122.846 0.765079L122.936 0.394399H122.554V0.694399ZM121.018 7.0304L120.727 6.9597L120.725 6.96583L121.018 7.0304ZM119.482 14V14.3H119.723L119.775 14.0646L119.482 14ZM115.911 14L115.62 14.0725L115.677 14.3H115.911V14ZM114.605 8.7584L114.313 8.8272L114.314 8.83091L114.605 8.7584ZM113.741 5.0912L114.033 5.0224L113.979 4.7912H113.741V5.0912ZM113.703 5.0912V4.7912H113.464L113.411 5.02385L113.703 5.0912ZM112.858 8.7584L113.149 8.83092L113.151 8.82575L112.858 8.7584ZM111.553 14V14.3H111.787L111.844 14.0725L111.553 14ZM108.058 14L107.765 14.064L107.817 14.3H108.058V14ZM106.833 6.97746L105.258 0.62226L104.676 0.766539L106.25 7.12174L106.833 6.97746ZM104.967 0.994399H108.154V0.394399H104.967V0.994399ZM107.859 0.750622L108.973 6.58742L109.562 6.47498L108.449 0.638176L107.859 0.750622ZM108.974 6.59189L109.819 10.6815L110.406 10.5601L109.562 6.47051L108.974 6.59189ZM110.113 10.9208H110.17V10.3208H110.113V10.9208ZM110.462 10.6908L111.48 6.44756L110.896 6.30764L109.878 10.5508L110.462 10.6908ZM111.481 6.44289L112.748 0.759688L112.162 0.629111L110.895 6.31231L111.481 6.44289ZM112.455 0.994399H115.105V0.394399H112.455V0.994399ZM114.813 0.763662L116.157 6.42766L116.74 6.28914L115.396 0.625136L114.813 0.763662ZM116.157 6.43054L117.213 10.6929L117.796 10.5487L116.74 6.28626L116.157 6.43054ZM117.505 10.9208H117.562V10.3208H117.505V10.9208ZM117.856 10.6818L118.701 6.61136L118.113 6.48943L117.268 10.5598L117.856 10.6818ZM118.702 6.60551L119.796 0.749511L119.206 0.639288L118.112 6.49529L118.702 6.60551ZM119.501 0.994399H122.554V0.394399H119.501V0.994399ZM122.263 0.623719L120.727 6.95972L121.31 7.10108L122.846 0.765079L122.263 0.623719ZM120.725 6.96583L119.189 13.9354L119.775 14.0646L121.311 7.09497L120.725 6.96583ZM119.482 13.7H115.911V14.3H119.482V13.7ZM116.202 13.9275L114.896 8.68589L114.314 8.83091L115.62 14.0725L116.202 13.9275ZM114.897 8.6896L114.033 5.0224L113.449 5.16L114.313 8.8272L114.897 8.6896ZM113.741 4.7912H113.703V5.3912H113.741V4.7912ZM113.411 5.02385L112.566 8.69105L113.151 8.82575L113.995 5.15855L113.411 5.02385ZM112.567 8.68589L111.261 13.9275L111.844 14.0725L113.149 8.83091L112.567 8.68589ZM111.553 13.7H108.058V14.3H111.553V13.7ZM108.351 13.936L106.834 6.98563L106.248 7.11356L107.765 14.064L108.351 13.936ZM125.614 13.4624L125.465 13.7227V13.7227L125.614 13.4624ZM123.406 11.0816L123.137 11.2131L123.137 11.2144L123.406 11.0816ZM123.406 3.6128L123.675 3.74563L123.406 3.6128ZM125.614 1.232L125.465 0.97174L125.614 1.232ZM132.43 1.232L132.28 1.49142L132.284 1.49375L132.43 1.232ZM134.638 3.5936L134.369 3.72643V3.72643L134.638 3.5936ZM134.638 11.0624L134.369 10.9309L134.638 11.0624ZM132.43 13.4624L132.58 13.7227V13.7227L132.43 13.4624ZM126.651 10.5824L126.409 10.7598L126.411 10.7617L126.651 10.5824ZM131.374 10.5824L131.134 10.4024L131.134 10.4031L131.374 10.5824ZM131.394 4.0928L131.633 3.91148V3.91148L131.394 4.0928ZM126.651 4.112L126.413 3.93005L126.411 3.93265L126.651 4.112ZM129.013 13.988C127.75 13.988 126.671 13.7222 125.764 13.2021L125.465 13.7227C126.478 14.3034 127.664 14.588 129.013 14.588V13.988ZM125.764 13.2021C124.858 12.6828 124.162 11.9347 123.675 10.9488L123.137 11.2144C123.675 12.3021 124.451 13.1412 125.465 13.7227L125.764 13.2021ZM123.676 10.9501C123.188 9.95003 122.938 8.74906 122.938 7.3376H122.338C122.338 8.81894 122.601 10.114 123.137 11.2131L123.676 10.9501ZM122.938 7.3376C122.938 5.92599 123.188 4.73208 123.675 3.74563L123.137 3.47997C122.601 4.56712 122.338 5.85641 122.338 7.3376H122.938ZM123.675 3.74563C124.162 2.75972 124.858 2.01164 125.764 1.49226L125.465 0.97174C124.451 1.55315 123.675 2.39228 123.137 3.47997L123.675 3.74563ZM125.764 1.49226C126.671 0.972235 127.75 0.706399 129.013 0.706399V0.106399C127.664 0.106399 126.478 0.390964 125.465 0.97174L125.764 1.49226ZM129.013 0.706399C130.302 0.706399 131.387 0.972768 132.28 1.49139L132.581 0.972611C131.579 0.39043 130.386 0.106399 129.013 0.106399V0.706399ZM132.284 1.49375C133.188 2.00017 133.883 2.74106 134.369 3.72643L134.907 3.46076C134.37 2.37254 133.593 1.53902 132.577 0.970247L132.284 1.49375ZM134.369 3.72643C134.856 4.71255 135.106 5.91273 135.106 7.3376H135.706C135.706 5.84407 135.445 4.54825 134.907 3.46076L134.369 3.72643ZM135.106 7.3376C135.106 8.7358 134.857 9.9305 134.369 10.9309L134.908 11.1939C135.444 10.0951 135.706 8.8066 135.706 7.3376H135.106ZM134.369 10.9309C133.882 11.9296 133.186 12.6833 132.281 13.2021L132.58 13.7227C133.595 13.1407 134.371 12.2944 134.908 11.1939L134.369 10.9309ZM132.281 13.2021C131.375 13.7219 130.289 13.988 129.013 13.988V14.588C130.374 14.588 131.566 14.3037 132.58 13.7227L132.281 13.2021ZM125.506 7.3376C125.506 8.76822 125.795 9.92141 126.409 10.7598L126.893 10.405C126.382 9.70739 126.106 8.69738 126.106 7.3376H125.506ZM126.411 10.7617C127.035 11.5991 127.915 12.0152 129.013 12.0152V11.4152C128.088 11.4152 127.394 11.0761 126.892 10.4031L126.411 10.7617ZM129.013 12.0152C130.111 12.0152 130.99 11.5991 131.615 10.7617L131.134 10.4031C130.632 11.0761 129.937 11.4152 129.013 11.4152V12.0152ZM131.614 10.7624C132.244 9.92365 132.538 8.7694 132.538 7.3376H131.938C131.938 8.6962 131.657 9.70515 131.134 10.4024L131.614 10.7624ZM132.538 7.3376C132.538 5.88381 132.251 4.72706 131.633 3.91148L131.155 4.27412C131.662 4.94334 131.938 5.94979 131.938 7.3376H132.538ZM131.633 3.91148C131.007 3.08619 130.12 2.6792 129.013 2.6792V3.2792C129.954 3.2792 130.654 3.61461 131.155 4.27412L131.633 3.91148ZM129.013 2.6792C127.926 2.6792 127.049 3.09613 126.413 3.93006L126.89 4.29393C127.406 3.61746 128.102 3.2792 129.013 3.2792V2.6792ZM126.411 3.93265C125.794 4.75925 125.506 5.90744 125.506 7.3376H126.106C126.106 5.97736 126.382 4.97515 126.892 4.29135L126.411 3.93265ZM136.979 7.3376L137.279 7.34019L137.279 7.335L136.979 7.3376ZM136.922 0.694399V0.394399H136.619L136.622 0.697L136.922 0.694399ZM146.33 1.7504L146.141 1.98368L146.145 1.98665L146.33 1.7504ZM145.542 8.1632L145.431 7.88466L144.794 8.13962L145.414 8.43418L145.542 8.1632ZM146.733 9.2768L146.472 9.4242L146.473 9.42711L146.733 9.2768ZM147.27 11.1776L147.569 11.1514L147.569 11.1482L147.27 11.1776ZM147.462 12.944L147.165 12.9864L147.167 12.9947L147.462 12.944ZM147.77 14V14.3H148.255L148.038 13.8658L147.77 14ZM144.621 14L144.347 14.1218L144.426 14.3H144.621V14ZM144.16 11.312L144.459 11.289L144.459 11.2871L144.16 11.312ZM143.142 9.3536L143.241 9.07025L143.142 9.3536ZM140.013 9.2V8.9H139.71L139.713 9.2024L140.013 9.2ZM140.051 14V14.3H140.354L140.351 13.9976L140.051 14ZM136.922 14L136.622 13.9974L136.619 14.3H136.922V14ZM144.064 6.4544L144.249 6.69081L144.064 6.4544ZM140.013 3.1904V2.8904H139.714L139.713 3.18886L140.013 3.1904ZM139.994 6.9344L139.694 6.93286L139.692 7.2344H139.994V6.9344ZM137.279 7.335L137.222 0.691798L136.622 0.697L136.679 7.3402L137.279 7.335ZM136.922 0.994399H142.432V0.394399H136.922V0.994399ZM142.432 0.994399C144.127 0.994399 145.346 1.34081 146.141 1.98365L146.518 1.51715C145.572 0.751989 144.193 0.394399 142.432 0.394399V0.994399ZM146.145 1.98665C146.938 2.60781 147.354 3.54693 147.354 4.8608H147.954C147.954 3.40987 147.487 2.27539 146.515 1.51415L146.145 1.98665ZM147.354 4.8608C147.354 5.63721 147.188 6.26233 146.874 6.75357C146.561 7.24307 146.087 7.62246 145.431 7.88466L145.654 8.44174C146.406 8.14074 146.988 7.68813 147.379 7.07683C147.769 6.46727 147.954 5.72279 147.954 4.8608H147.354ZM145.414 8.43418C145.869 8.65053 146.22 8.97823 146.472 9.4242L146.994 9.1294C146.682 8.57697 146.24 8.16227 145.671 7.89222L145.414 8.43418ZM146.473 9.42711C146.727 9.86481 146.898 10.453 146.972 11.207L147.569 11.1482C147.49 10.3406 147.302 9.66159 146.992 9.12649L146.473 9.42711ZM146.972 11.2038C147.036 11.936 147.1 12.5308 147.165 12.9864L147.759 12.9016C147.697 12.4612 147.633 11.8784 147.569 11.1514L146.972 11.2038ZM147.167 12.9947C147.246 13.4568 147.355 13.8411 147.501 14.1342L148.038 13.8658C147.929 13.6469 147.833 13.3272 147.758 12.8933L147.167 12.9947ZM147.77 13.7H144.621V14.3H147.77V13.7ZM144.895 13.8782C144.714 13.4709 144.562 12.6246 144.459 11.289L143.861 11.335C143.963 12.6618 144.118 13.6075 144.347 14.1218L144.895 13.8782ZM144.459 11.2871C144.407 10.6593 144.293 10.1527 144.095 9.80118L143.572 10.0964C143.707 10.3337 143.811 10.7359 143.861 11.3369L144.459 11.2871ZM144.095 9.80118C143.896 9.44911 143.61 9.19873 143.241 9.07025L143.044 9.63695C143.263 9.71327 143.439 9.85969 143.572 10.0964L144.095 9.80118ZM143.241 9.07025C142.9 8.95164 142.445 8.9 141.894 8.9V9.5C142.419 9.5 142.796 9.55076 143.044 9.63695L143.241 9.07025ZM141.894 8.9H140.013V9.5H141.894V8.9ZM139.713 9.2024L139.751 14.0024L140.351 13.9976L140.313 9.1976L139.713 9.2024ZM140.051 13.7H136.922V14.3H140.051V13.7ZM137.222 14.0026L137.279 7.34019L136.679 7.33501L136.622 13.9974L137.222 14.0026ZM142.221 7.2344C143.071 7.2344 143.764 7.06978 144.249 6.69081L143.879 6.21799C143.545 6.47902 143.009 6.6344 142.221 6.6344V7.2344ZM144.249 6.69081C144.745 6.30328 144.978 5.7407 144.978 5.0528H144.378C144.378 5.5937 144.202 5.96552 143.879 6.21799L144.249 6.69081ZM144.978 5.0528C144.978 4.36428 144.757 3.80117 144.274 3.42044C143.805 3.05041 143.135 2.8904 142.317 2.8904V3.4904C143.073 3.4904 143.584 3.64079 143.902 3.89156C144.207 4.13163 144.378 4.49971 144.378 5.0528H144.978ZM142.317 2.8904H140.013V3.4904H142.317V2.8904ZM139.713 3.18886L139.694 6.93286L140.294 6.93594L140.313 3.19194L139.713 3.18886ZM139.994 7.2344H142.221V6.6344H139.994V7.2344ZM149.598 6.7424L149.898 6.74478L149.898 6.73954L149.598 6.7424ZM149.54 0.694399V0.394399H149.238L149.24 0.697256L149.54 0.694399ZM152.67 0.694399L152.97 0.697256L152.973 0.394399H152.67V0.694399ZM152.612 6.7424L152.312 6.73954L152.312 6.74487L152.612 6.7424ZM152.651 11.408L152.351 11.4105L152.353 11.708H152.651V11.408ZM158.43 11.408H158.73V11.108H158.43V11.408ZM158.43 14V14.3H158.73V14H158.43ZM149.54 14L149.24 13.9976L149.238 14.3H149.54V14ZM149.898 6.73954L149.84 0.691542L149.24 0.697256L149.298 6.74526L149.898 6.73954ZM149.54 0.994399H152.67V0.394399H149.54V0.994399ZM152.37 0.691542L152.312 6.73954L152.912 6.74526L152.97 0.697256L152.37 0.691542ZM152.312 6.74487L152.351 11.4105L152.951 11.4055L152.912 6.73993L152.312 6.74487ZM152.651 11.708H158.43V11.108H152.651V11.708ZM158.13 11.408V14H158.73V11.408H158.13ZM158.43 13.7H149.54V14.3H158.43V13.7ZM149.84 14.0024L149.898 6.74478L149.298 6.74002L149.24 13.9976L149.84 14.0024ZM159.929 7.3568L160.229 7.3594L160.229 7.35421L159.929 7.3568ZM159.872 0.694399V0.394399H159.569L159.572 0.696993L159.872 0.694399ZM169.683 12.3296L169.889 12.5476L169.889 12.5475L169.683 12.3296ZM159.872 14L159.572 13.9974L159.569 14.3H159.872V14ZM162.963 11.3888L162.663 11.3931L162.667 11.6888H162.963V11.3888ZM167.34 10.3712L167.128 10.1591L167.126 10.1611L167.34 10.3712ZM162.963 3.2864V2.9864H162.667L162.663 3.28215L162.963 3.2864ZM162.905 7.3568L162.605 7.35255L162.605 7.36108L162.905 7.3568ZM160.229 7.35421L160.172 0.691806L159.572 0.696993L159.629 7.35939L160.229 7.35421ZM159.872 0.994399H164.307V0.394399H159.872V0.994399ZM164.307 0.994399C166.654 0.994399 168.359 1.52994 169.476 2.54811C170.588 3.56148 171.168 5.10017 171.168 7.2224H171.768C171.768 4.99263 171.156 3.26732 169.88 2.10469C168.61 0.946857 166.734 0.394399 164.307 0.394399V0.994399ZM171.168 7.2224C171.168 9.45138 170.587 11.0612 169.477 12.1117L169.889 12.5475C171.16 11.3452 171.768 9.55022 171.768 7.2224H171.168ZM169.477 12.1116C168.377 13.1519 166.673 13.7 164.307 13.7V14.3C166.753 14.3 168.634 13.7345 169.889 12.5476L169.477 12.1116ZM164.307 13.7H159.872V14.3H164.307V13.7ZM160.172 14.0026L160.229 7.3594L159.629 7.3542L159.572 13.9974L160.172 14.0026ZM162.963 11.6888H164.288V11.0888H162.963V11.6888ZM164.288 11.6888C165.702 11.6888 166.812 11.3385 167.555 10.5813L167.126 10.1611C166.538 10.7607 165.612 11.0888 164.288 11.0888V11.6888ZM167.553 10.5833C168.309 9.82654 168.658 8.68476 168.658 7.2224H168.058C168.058 8.60164 167.728 9.55906 167.128 10.1591L167.553 10.5833ZM168.658 7.2224C168.658 5.86155 168.306 4.78642 167.549 4.05474C166.794 3.32486 165.688 2.9864 164.288 2.9864V3.5864C165.601 3.5864 166.53 3.90393 167.132 4.48606C167.732 5.06638 168.058 5.95925 168.058 7.2224H168.658ZM164.288 2.9864H162.963V3.5864H164.288V2.9864ZM162.663 3.28215L162.605 7.35255L163.205 7.36104L163.263 3.29064L162.663 3.28215ZM162.605 7.36108L162.663 11.3931L163.263 11.3845L163.205 7.35251L162.605 7.36108Z" fill="black"/>
</svg>
