<svg width="173" height="32" viewBox="0 0 173 32" fill="none" xmlns="http://www.w3.org/2000/svg">
<circle cx="15.7203" cy="15.7203" r="11.7902" stroke="url(#paint0_linear_309_18)" stroke-width="7.86015"/>
<path d="M42.3568 21.7203H40.7345V9.08122H42.5643L45.8278 15.3442L47.1106 18.1172L48.3745 15.3442L51.6569 9.08122H53.4868V21.7203H51.8456V14.7405L52.0154 11.3261L50.6194 14.4576L47.9029 19.6075H46.2995L43.583 14.4576L42.1682 11.3261L42.3568 14.7405V21.7203ZM56.4623 21.7203H54.7268L59.8202 9.08122H61.4614L66.5548 21.7203H64.7438L61.235 12.7409L60.6125 10.7601L59.9711 12.7409L56.4623 21.7203ZM64.0269 18.1927H57.1603V16.7401H64.0269V18.1927ZM78.1927 21.7203H76.1365L72.4202 16.1365L71.7223 15.8158L67.1194 9.08122H69.2133L72.7032 14.6462L73.571 15.1178L78.1927 21.7203ZM68.8172 21.7203H66.7609L71.345 15.1555L72.3071 14.5519L75.929 9.08122H77.8343L73.3635 15.646L72.5712 16.0988L68.8172 21.7203ZM81.1488 21.7203H79.5265V9.08122H81.1488V21.7203ZM88.1664 21.7203H80.0736V20.2678H88.1664V21.7203ZM86.9402 15.9667H80.0736V14.5142H86.9402V15.9667ZM88.1664 10.5338H80.0736V9.08122H88.1664V10.5338ZM91.8197 21.7203H90.1974V9.08122H91.6499L97.2904 17.1174L98.592 19.0793L98.4977 17.1552V9.08122H100.12V21.7203H98.6675L92.8761 13.4955L91.7443 11.8166L91.8197 13.4766V21.7203ZM111.976 21.7203H108.052V20.2678H111.711C112.667 20.2678 113.478 20.1169 114.145 19.815C114.824 19.5006 115.34 18.9913 115.692 18.287C116.057 17.5702 116.239 16.6081 116.239 15.4008C116.239 14.1935 116.057 13.2377 115.692 12.5334C115.34 11.8166 114.824 11.3072 114.145 11.0054C113.478 10.691 112.667 10.5338 111.711 10.5338H108.052V9.08122H111.976C113.309 9.08122 114.415 9.33275 115.296 9.83579C116.176 10.3263 116.836 11.0431 117.276 11.9863C117.717 12.9295 117.937 14.0677 117.937 15.4008C117.937 16.7339 117.717 17.872 117.276 18.8152C116.836 19.7584 116.176 20.4816 115.296 20.9846C114.415 21.4751 113.309 21.7203 111.976 21.7203ZM109.127 21.7203H107.505V9.08122H109.127V21.7203ZM122.045 21.7203H120.423V9.08122H122.045V21.7203ZM129.711 21.8713C128.58 21.8713 127.63 21.6009 126.863 21.0601C126.096 20.5067 125.517 19.7459 125.127 18.7775C124.738 17.7966 124.543 16.6647 124.543 15.3819C124.543 14.1494 124.769 13.0427 125.222 12.0618C125.674 11.0808 126.335 10.3074 127.202 9.74147C128.083 9.17554 129.158 8.89258 130.428 8.89258C131.309 8.89258 132.101 9.0372 132.805 9.32646C133.522 9.61571 134.132 10.0433 134.635 10.6092C135.151 11.1626 135.547 11.8354 135.823 12.6277L134.352 13.5898C134.201 12.9987 133.962 12.4642 133.635 11.9863C133.308 11.5084 132.881 11.1311 132.352 10.8545C131.824 10.5778 131.189 10.4395 130.447 10.4395C129.491 10.4395 128.705 10.6533 128.089 11.0808C127.473 11.5084 127.014 12.0932 126.712 12.8352C126.423 13.5646 126.278 14.4135 126.278 15.3819C126.278 16.3377 126.416 17.1866 126.693 17.9286C126.982 18.6706 127.423 19.2554 128.014 19.683C128.605 20.1106 129.359 20.3244 130.277 20.3244C131.095 20.3244 131.761 20.1797 132.277 19.8905C132.805 19.5887 133.214 19.1674 133.503 18.6266C133.805 18.0858 134.025 17.4507 134.163 16.7213H134.409L134.333 16.8345C134.295 17.7651 134.094 18.614 133.73 19.3812C133.365 20.1357 132.843 20.7394 132.164 21.1921C131.497 21.6449 130.68 21.8713 129.711 21.8713ZM135.861 21.7203H134.843L134.333 16.8345H130.277V15.3819H135.861V21.7203ZM140.292 21.7203H138.67V9.08122H140.292V21.7203ZM147.071 21.7203H145.449V9.08122H147.071V21.7203ZM151.071 10.5338H141.45V9.08122H151.071V10.5338ZM151.62 21.7203H149.885L154.978 9.08122H156.62L161.713 21.7203H159.902L156.393 12.7409L155.771 10.7601L155.129 12.7409L151.62 21.7203ZM159.185 18.1927H152.318V16.7401H159.185V18.1927ZM164.568 21.7203H162.945V9.08122H164.568V21.7203ZM171.208 21.7203H163.492V20.2678H171.208V21.7203Z" fill="white"/>
<defs>
<linearGradient id="paint0_linear_309_18" x1="0" y1="15.7203" x2="31.4406" y2="15.7203" gradientUnits="userSpaceOnUse">
<stop stop-color="#004AAD"/>
<stop offset="1" stop-color="white"/>
</linearGradient>
</defs>
</svg>
