<svg width="169" height="44" viewBox="0 0 169 44" fill="none" xmlns="http://www.w3.org/2000/svg">
<path d="M12.0095 16.2649C10.8174 16.2649 9.70632 16.0736 8.67616 15.691C7.66071 15.2936 6.77772 14.7344 6.02717 14.0133C5.27663 13.2921 4.68796 12.4459 4.26118 11.4747C3.84912 10.5034 3.64309 9.43641 3.64309 8.2738C3.64309 7.11119 3.84912 6.04423 4.26118 5.07294C4.68796 4.10165 5.27663 3.25544 6.02717 2.53433C6.79243 1.81322 7.68279 1.26135 8.69823 0.878715C9.71367 0.481368 10.8248 0.282694 12.0315 0.282694C13.3707 0.282694 14.5775 0.51816 15.6518 0.98909C16.7408 1.4453 17.6533 2.12227 18.3891 3.01998L16.0933 5.13917C15.5635 4.53578 14.9749 4.08693 14.3273 3.7926C13.6798 3.48355 12.9734 3.32903 12.2081 3.32903C11.487 3.32903 10.8248 3.44676 10.2214 3.68222C9.61802 3.91769 9.09558 4.25617 8.65408 4.69767C8.21258 5.13916 7.86674 5.6616 7.61656 6.26498C7.3811 6.86836 7.26336 7.53797 7.26336 8.2738C7.26336 9.00963 7.3811 9.67923 7.61656 10.2826C7.86674 10.886 8.21258 11.4084 8.65408 11.8499C9.09558 12.2914 9.61802 12.6299 10.2214 12.8654C10.8248 13.1008 11.487 13.2186 12.2081 13.2186C12.9734 13.2186 13.6798 13.0714 14.3273 12.7771C14.9749 12.468 15.5635 12.0044 16.0933 11.3864L18.3891 13.5055C17.6533 14.4033 16.7408 15.0876 15.6518 15.5585C14.5775 16.0294 13.3634 16.2649 12.0095 16.2649ZM18.4929 16L25.3803 0.547592H28.9123L35.8217 16H32.069L26.4178 2.35773H27.8306L22.1573 16H18.4929ZM21.9366 12.6888L22.8858 9.97356H30.8328L31.8041 12.6888H21.9366ZM37.4249 16V0.547592H44.1136C45.4969 0.547592 46.689 0.775699 47.6897 1.23191C48.6904 1.67341 49.463 2.31358 50.0075 3.15243C50.5521 3.99127 50.8243 4.992 50.8243 6.15461C50.8243 7.3025 50.5521 8.29587 50.0075 9.13472C49.463 9.95884 48.6904 10.5917 47.6897 11.0332C46.689 11.4747 45.4969 11.6954 44.1136 11.6954H39.4116L41.001 10.1281V16H37.4249ZM47.2482 16L43.3851 10.393H47.204L51.1113 16H47.2482ZM41.001 10.5254L39.4116 8.84774H43.9149C45.0186 8.84774 45.8428 8.61228 46.3873 8.14135C46.9318 7.6557 47.204 6.99345 47.204 6.15461C47.204 5.30105 46.9318 4.6388 46.3873 4.16787C45.8428 3.69694 45.0186 3.46147 43.9149 3.46147H39.4116L41.001 1.76171V10.5254ZM64.9866 16.2649C63.7504 16.2649 62.5657 16.103 61.4325 15.7793C60.2993 15.4408 59.3869 15.0066 58.6952 14.4768L59.9093 11.7837C60.5716 12.2546 61.3516 12.6446 62.2493 12.9537C63.1617 13.248 64.0815 13.3952 65.0086 13.3952C65.715 13.3952 66.2816 13.3289 66.7084 13.1965C67.1499 13.0493 67.4737 12.8507 67.6797 12.6005C67.8857 12.3503 67.9887 12.0633 67.9887 11.7396C67.9887 11.3275 67.8269 11.0037 67.5031 10.7683C67.1793 10.5181 66.7525 10.3194 66.2227 10.1722C65.693 10.0104 65.1043 9.86319 64.4568 9.73074C63.8239 9.58357 63.1838 9.40697 62.5362 9.20094C61.9034 8.99491 61.3221 8.73001 60.7923 8.40625C60.2625 8.08248 59.8284 7.6557 59.4899 7.1259C59.1661 6.59611 59.0043 5.91914 59.0043 5.09502C59.0043 4.21202 59.2397 3.40997 59.7107 2.68885C60.1963 1.95302 60.9174 1.37172 61.874 0.94494C62.8453 0.503443 64.0594 0.282694 65.5164 0.282694C66.4876 0.282694 67.4442 0.400427 68.3861 0.635892C69.3279 0.85664 70.1594 1.19512 70.8805 1.65134L69.7768 4.36654C69.0557 3.95448 68.3346 3.65279 67.6135 3.46147C66.8924 3.25544 66.186 3.15243 65.4943 3.15243C64.8026 3.15243 64.236 3.23337 63.7945 3.39525C63.353 3.55713 63.0366 3.77052 62.8453 4.03542C62.654 4.2856 62.5583 4.57993 62.5583 4.91842C62.5583 5.31576 62.7202 5.63953 63.044 5.88971C63.3677 6.12518 63.7945 6.31649 64.3243 6.46366C64.8541 6.61082 65.4354 6.75799 66.0682 6.90515C66.7158 7.05232 67.3559 7.22156 67.9887 7.41288C68.6363 7.60419 69.2249 7.86173 69.7547 8.1855C70.2845 8.50926 70.7113 8.93604 71.0351 9.46584C71.3736 9.99564 71.5428 10.6652 71.5428 11.4747C71.5428 12.3429 71.3 13.1376 70.8143 13.8587C70.3287 14.5799 69.6002 15.1612 68.6289 15.6027C67.6723 16.0441 66.4582 16.2649 64.9866 16.2649ZM84.5823 0.547592H88.1584V16H84.5823V0.547592ZM77.5625 16H73.9864V0.547592H77.5625V16ZM84.8472 9.66451H77.2976V6.64026H84.8472V9.66451ZM89.7835 16L96.6709 0.547592H100.203L107.112 16H103.36L97.7084 2.35773H99.1212L93.448 16H89.7835ZM93.2272 12.6888L94.1764 9.97356H102.123L103.095 12.6888H93.2272ZM108.715 16V0.547592H115.404C116.788 0.547592 117.98 0.775699 118.98 1.23191C119.981 1.67341 120.754 2.31358 121.298 3.15243C121.843 3.99127 122.115 4.992 122.115 6.15461C122.115 7.3025 121.843 8.29587 121.298 9.13472C120.754 9.95884 119.981 10.5917 118.98 11.0332C117.98 11.4747 116.788 11.6954 115.404 11.6954H110.702L112.292 10.1281V16H108.715ZM118.539 16L114.676 10.393H118.495L122.402 16H118.539ZM112.292 10.5254L110.702 8.84774H115.205C116.309 8.84774 117.133 8.61228 117.678 8.14135C118.222 7.6557 118.495 6.99345 118.495 6.15461C118.495 5.30105 118.222 4.6388 117.678 4.16787C117.133 3.69694 116.309 3.46147 115.205 3.46147H110.702L112.292 1.76171V10.5254ZM124.948 16V0.547592H128.524V16H124.948ZM132.192 16V0.547592H135.15L144.267 11.6733H142.832V0.547592H146.364V16H143.428L134.289 4.87427H135.724V16H132.192ZM157.481 16.2649C156.259 16.2649 155.134 16.0736 154.103 15.691C153.088 15.2936 152.198 14.7344 151.432 14.0133C150.682 13.2921 150.093 12.4459 149.666 11.4747C149.254 10.5034 149.048 9.43641 149.048 8.2738C149.048 7.11119 149.254 6.04423 149.666 5.07294C150.093 4.10165 150.689 3.25544 151.455 2.53433C152.22 1.81322 153.117 1.26135 154.148 0.878715C155.178 0.481368 156.311 0.282694 157.547 0.282694C158.916 0.282694 160.145 0.510801 161.234 0.967014C162.337 1.42323 163.265 2.08547 164.015 2.95375L161.719 5.07294C161.16 4.48428 160.549 4.05014 159.887 3.77052C159.225 3.47619 158.504 3.32903 157.724 3.32903C156.973 3.32903 156.289 3.44676 155.671 3.68222C155.053 3.91769 154.516 4.25617 154.059 4.69767C153.618 5.13916 153.272 5.6616 153.022 6.26498C152.786 6.86836 152.669 7.53797 152.669 8.2738C152.669 8.99491 152.786 9.65715 153.022 10.2605C153.272 10.8639 153.618 11.3937 154.059 11.8499C154.516 12.2914 155.045 12.6299 155.649 12.8654C156.267 13.1008 156.944 13.2186 157.68 13.2186C158.386 13.2186 159.07 13.1082 159.733 12.8874C160.41 12.652 161.064 12.262 161.697 11.7175L163.728 14.3002C162.889 14.933 161.911 15.4187 160.792 15.7572C159.688 16.0957 158.585 16.2649 157.481 16.2649ZM160.461 13.8367V8.03097H163.728V14.3002L160.461 13.8367ZM0.238212 43V27.5476H3.19624L9.77456 38.4526H8.20724L14.6752 27.5476H17.6111L17.6553 43H14.2999L14.2778 32.691H14.8959L9.73041 41.3665H8.11894L2.84305 32.691H3.59359V43H0.238212ZM19.2905 43L26.1779 27.5476H29.7099L36.6193 43H32.8666L27.2154 29.3577H28.6282L22.955 43H19.2905ZM22.7342 39.6888L23.6834 36.9736H31.6304L32.6017 39.6888H22.7342ZM43.2997 43.2649C42.0635 43.2649 40.8788 43.103 39.7457 42.7793C38.6125 42.4408 37.7001 42.0066 37.0084 41.4768L38.2225 38.7837C38.8847 39.2546 39.6647 39.6446 40.5624 39.9537C41.4749 40.248 42.3947 40.3952 43.3218 40.3952C44.0282 40.3952 44.5948 40.3289 45.0216 40.1965C45.4631 40.0493 45.7868 39.8507 45.9929 39.6005C46.1989 39.3503 46.3019 39.0633 46.3019 38.7396C46.3019 38.3275 46.14 38.0037 45.8163 37.7683C45.4925 37.5181 45.0657 37.3194 44.5359 37.1722C44.0061 37.0104 43.4175 36.8632 42.7699 36.7307C42.1371 36.5836 41.4969 36.407 40.8494 36.2009C40.2166 35.9949 39.6353 35.73 39.1055 35.4062C38.5757 35.0825 38.1416 34.6557 37.8031 34.1259C37.4793 33.5961 37.3174 32.9191 37.3174 32.095C37.3174 31.212 37.5529 30.41 38.0238 29.6889C38.5095 28.953 39.2306 28.3717 40.1872 27.9449C41.1585 27.5034 42.3726 27.2827 43.8295 27.2827C44.8008 27.2827 45.7574 27.4004 46.6993 27.6359C47.6411 27.8566 48.4726 28.1951 49.1937 28.6513L48.09 31.3665C47.3689 30.9545 46.6477 30.6528 45.9266 30.4615C45.2055 30.2554 44.4991 30.1524 43.8074 30.1524C43.1158 30.1524 42.5492 30.2334 42.1077 30.3952C41.6662 30.5571 41.3498 30.7705 41.1585 31.0354C40.9671 31.2856 40.8715 31.5799 40.8715 31.9184C40.8715 32.3158 41.0334 32.6395 41.3571 32.8897C41.6809 33.1252 42.1077 33.3165 42.6375 33.4637C43.1673 33.6108 43.7486 33.758 44.3814 33.9052C45.0289 34.0523 45.6691 34.2216 46.3019 34.4129C46.9494 34.6042 47.5381 34.8617 48.0679 35.1855C48.5977 35.5093 49.0245 35.936 49.3482 36.4658C49.6867 36.9956 49.856 37.6652 49.856 38.4747C49.856 39.3429 49.6131 40.1376 49.1275 40.8587C48.6418 41.5799 47.9134 42.1612 46.9421 42.6027C45.9855 43.0441 44.7714 43.2649 43.2997 43.2649ZM55.2848 43V30.4615H50.3401V27.5476H63.8057V30.4615H58.861V43H55.2848ZM69.019 33.7727H76.4582V36.5541H69.019V33.7727ZM69.2839 40.1303H77.6944V43H65.7299V27.5476H77.4075V30.4173H69.2839V40.1303ZM80.5399 43V27.5476H87.2285C88.6119 27.5476 89.8039 27.7757 90.8047 28.2319C91.8054 28.6734 92.578 29.3136 93.1225 30.1524C93.667 30.9913 93.9393 31.992 93.9393 33.1546C93.9393 34.3025 93.667 35.2959 93.1225 36.1347C92.578 36.9588 91.8054 37.5917 90.8047 38.0332C89.8039 38.4747 88.6119 38.6954 87.2285 38.6954H82.5266L84.116 37.1281V43H80.5399ZM90.3632 43L86.5001 37.393H90.319L94.2263 43H90.3632ZM84.116 37.5254L82.5266 35.8477H87.0299C88.1336 35.8477 88.9577 35.6123 89.5023 35.1413C90.0468 34.6557 90.319 33.9935 90.319 33.1546C90.319 32.301 90.0468 31.6388 89.5023 31.1679C88.9577 30.6969 88.1336 30.4615 87.0299 30.4615H82.5266L84.116 28.7617V37.5254ZM104.168 43.2649C102.976 43.2649 101.865 43.0736 100.834 42.691C99.819 42.2936 98.936 41.7344 98.1854 41.0133C97.4349 40.2921 96.8462 39.4459 96.4194 38.4747C96.0074 37.5034 95.8013 36.4364 95.8013 35.2738C95.8013 34.1112 96.0074 33.0442 96.4194 32.0729C96.8462 31.1016 97.4349 30.2554 98.1854 29.5343C98.9507 28.8132 99.8411 28.2613 100.856 27.8787C101.872 27.4814 102.983 27.2827 104.19 27.2827C105.529 27.2827 106.736 27.5182 107.81 27.9891C108.899 28.4453 109.812 29.1223 110.547 30.02L108.252 32.1392C107.722 31.5358 107.133 31.0869 106.486 30.7926C105.838 30.4836 105.132 30.329 104.366 30.329C103.645 30.329 102.983 30.4468 102.38 30.6822C101.776 30.9177 101.254 31.2562 100.812 31.6977C100.371 32.1392 100.025 32.6616 99.7748 33.265C99.5394 33.8684 99.4216 34.538 99.4216 35.2738C99.4216 36.0096 99.5394 36.6792 99.7748 37.2826C100.025 37.886 100.371 38.4084 100.812 38.8499C101.254 39.2914 101.776 39.6299 102.38 39.8654C102.983 40.1008 103.645 40.2186 104.366 40.2186C105.132 40.2186 105.838 40.0714 106.486 39.7771C107.133 39.468 107.722 39.0044 108.252 38.3864L110.547 40.5055C109.812 41.4033 108.899 42.0876 107.81 42.5585C106.736 43.0294 105.522 43.2649 104.168 43.2649ZM112.962 43V27.5476H116.538V40.0861H124.287V43H112.962ZM124.34 43L131.228 27.5476H134.76L141.669 43H137.916L132.265 29.3577H133.678L128.005 43H124.34ZM127.784 39.6888L128.733 36.9736H136.68L137.651 39.6888H127.784ZM148.349 43.2649C147.113 43.2649 145.928 43.103 144.795 42.7793C143.662 42.4408 142.75 42.0066 142.058 41.4768L143.272 38.7837C143.934 39.2546 144.714 39.6446 145.612 39.9537C146.525 40.248 147.444 40.3952 148.371 40.3952C149.078 40.3952 149.644 40.3289 150.071 40.1965C150.513 40.0493 150.836 39.8507 151.043 39.6005C151.249 39.3503 151.352 39.0633 151.352 38.7396C151.352 38.3275 151.19 38.0037 150.866 37.7683C150.542 37.5181 150.115 37.3194 149.586 37.1722C149.056 37.0104 148.467 36.8632 147.82 36.7307C147.187 36.5836 146.547 36.407 145.899 36.2009C145.266 35.9949 144.685 35.73 144.155 35.4062C143.625 35.0825 143.191 34.6557 142.853 34.1259C142.529 33.5961 142.367 32.9191 142.367 32.095C142.367 31.212 142.603 30.41 143.073 29.6889C143.559 28.953 144.28 28.3717 145.237 27.9449C146.208 27.5034 147.422 27.2827 148.879 27.2827C149.85 27.2827 150.807 27.4004 151.749 27.6359C152.691 27.8566 153.522 28.1951 154.243 28.6513L153.14 31.3665C152.419 30.9545 151.697 30.6528 150.976 30.4615C150.255 30.2554 149.549 30.1524 148.857 30.1524C148.165 30.1524 147.599 30.2334 147.157 30.3952C146.716 30.5571 146.399 30.7705 146.208 31.0354C146.017 31.2856 145.921 31.5799 145.921 31.9184C145.921 32.3158 146.083 32.6395 146.407 32.8897C146.731 33.1252 147.157 33.3165 147.687 33.4637C148.217 33.6108 148.798 33.758 149.431 33.9052C150.079 34.0523 150.719 34.2216 151.352 34.4129C151.999 34.6042 152.588 34.8617 153.118 35.1855C153.647 35.5093 154.074 35.936 154.398 36.4658C154.736 36.9956 154.906 37.6652 154.906 38.4747C154.906 39.3429 154.663 40.1376 154.177 40.8587C153.691 41.5799 152.963 42.1612 151.992 42.6027C151.035 43.0441 149.821 43.2649 148.349 43.2649ZM162.426 43.2649C161.19 43.2649 160.006 43.103 158.872 42.7793C157.739 42.4408 156.827 42.0066 156.135 41.4768L157.349 38.7837C158.011 39.2546 158.791 39.6446 159.689 39.9537C160.602 40.248 161.521 40.3952 162.448 40.3952C163.155 40.3952 163.721 40.3289 164.148 40.1965C164.59 40.0493 164.914 39.8507 165.12 39.6005C165.326 39.3503 165.429 39.0633 165.429 38.7396C165.429 38.3275 165.267 38.0037 164.943 37.7683C164.619 37.5181 164.192 37.3194 163.663 37.1722C163.133 37.0104 162.544 36.8632 161.897 36.7307C161.264 36.5836 160.624 36.407 159.976 36.2009C159.343 35.9949 158.762 35.73 158.232 35.4062C157.702 35.0825 157.268 34.6557 156.93 34.1259C156.606 33.5961 156.444 32.9191 156.444 32.095C156.444 31.212 156.68 30.41 157.151 29.6889C157.636 28.953 158.357 28.3717 159.314 27.9449C160.285 27.5034 161.499 27.2827 162.956 27.2827C163.927 27.2827 164.884 27.4004 165.826 27.6359C166.768 27.8566 167.599 28.1951 168.32 28.6513L167.217 31.3665C166.496 30.9545 165.774 30.6528 165.053 30.4615C164.332 30.2554 163.626 30.1524 162.934 30.1524C162.242 30.1524 161.676 30.2334 161.234 30.3952C160.793 30.5571 160.476 30.7705 160.285 31.0354C160.094 31.2856 159.998 31.5799 159.998 31.9184C159.998 32.3158 160.16 32.6395 160.484 32.8897C160.808 33.1252 161.234 33.3165 161.764 33.4637C162.294 33.6108 162.875 33.758 163.508 33.9052C164.156 34.0523 164.796 34.2216 165.429 34.4129C166.076 34.6042 166.665 34.8617 167.195 35.1855C167.724 35.5093 168.151 35.936 168.475 36.4658C168.813 36.9956 168.983 37.6652 168.983 38.4747C168.983 39.3429 168.74 40.1376 168.254 40.8587C167.769 41.5799 167.04 42.1612 166.069 42.6027C165.112 43.0441 163.898 43.2649 162.426 43.2649Z" fill="white"/>
</svg>
