<svg width="169" height="19" viewBox="0 0 169 19" fill="none" xmlns="http://www.w3.org/2000/svg">
<path d="M5.23264 18H0.802365V1.16964H5.23264V18ZM19.2759 18L12.5719 7.49861V18H8.51671V1.16964H13.2752L19.4869 10.8975V1.16964H23.5421V18H19.2759ZM32.9242 13.3822H25.8921V9.77235H32.9242V13.3822ZM43.194 18.3516C41.9751 18.3516 40.8421 18.1406 39.7951 17.7187C38.7481 17.2812 37.8261 16.6717 37.0291 15.8903C36.2477 15.0934 35.6305 14.1636 35.1773 13.1009C34.7397 12.0226 34.5209 10.8428 34.5209 9.56138C34.5209 8.27996 34.7397 7.10793 35.1773 6.04529C35.6305 4.98265 36.2477 4.06065 37.0291 3.2793C37.8261 2.49794 38.7481 1.8963 39.7951 1.47437C40.8421 1.03681 41.9751 0.818031 43.194 0.818031C44.4129 0.818031 45.5459 1.03681 46.5929 1.47437C47.6555 1.8963 48.5775 2.49794 49.3589 3.2793C50.1558 4.06065 50.7731 4.98265 51.2107 6.04529C51.6639 7.10793 51.8904 8.27996 51.8904 9.56138C51.8904 10.8428 51.6639 12.0226 51.2107 13.1009C50.7731 14.1636 50.1558 15.0934 49.3589 15.8903C48.5775 16.6717 47.6555 17.2812 46.5929 17.7187C45.5459 18.1406 44.4129 18.3516 43.194 18.3516ZM43.194 14.3901C43.8503 14.3901 44.4363 14.2651 44.952 14.0151C45.4677 13.7651 45.8975 13.4213 46.2413 12.9837C46.6007 12.5305 46.8663 12.0148 47.0382 11.4366C47.2258 10.8428 47.3195 10.2177 47.3195 9.56138C47.3195 8.90504 47.2258 8.28777 47.0382 7.70957C46.8663 7.13137 46.6007 6.62349 46.2413 6.18593C45.8975 5.74837 45.4677 5.40458 44.952 5.15454C44.4363 4.90451 43.8503 4.7795 43.194 4.7795C42.5376 4.7795 41.9516 4.90451 41.4359 5.15454C40.9202 5.40458 40.4827 5.74837 40.1233 6.18593C39.7795 6.62349 39.5138 7.13137 39.3263 7.70957C39.1544 8.28777 39.0684 8.90504 39.0684 9.56138C39.0684 10.2177 39.1544 10.8428 39.3263 11.4366C39.5138 12.0148 39.7795 12.5305 40.1233 12.9837C40.4827 13.4213 40.9202 13.7651 41.4359 14.0151C41.9516 14.2651 42.5376 14.3901 43.194 14.3901ZM68.7413 1.16964V11.296C68.7413 12.6555 68.46 13.8666 67.8975 14.9293C67.3505 15.9919 66.5301 16.828 65.4362 17.4374C64.3579 18.0469 63.0296 18.3516 61.4513 18.3516C59.8573 18.3516 58.5134 18.0469 57.4195 17.4374C56.3412 16.828 55.5208 15.9919 54.9582 14.9293C54.4113 13.8666 54.1378 12.6555 54.1378 11.296V1.16964H58.5681V11.3663C58.5681 11.9445 58.654 12.468 58.8259 12.9368C58.9978 13.39 59.2869 13.7494 59.6932 14.0151C60.1152 14.2651 60.7012 14.3901 61.4513 14.3901C62.2014 14.3901 62.7796 14.2651 63.1859 14.0151C63.6078 13.7494 63.8969 13.39 64.0532 12.9368C64.2251 12.468 64.311 11.9445 64.311 11.3663V1.16964H68.7413ZM80.2691 18H75.8389V5.17798H70.6819V1.16964H85.4261V5.17798H80.2691V18ZM99.5181 13.1712C99.5181 14.7027 98.9946 15.8903 97.9476 16.7342C96.9162 17.5781 95.5254 18 93.7752 18H87.6103V1.16964H93.447C95.1503 1.16964 96.4786 1.5525 97.4319 2.31823C98.4008 3.06833 98.8852 4.15441 98.8852 5.57648C98.8852 6.37346 98.6586 7.0923 98.2054 7.73301C97.7522 8.37372 97.1193 8.87379 96.3067 9.23321C97.3538 9.53013 98.1507 10.0224 98.6977 10.71C99.2446 11.3819 99.5181 12.2024 99.5181 13.1712ZM93.2829 3.23241H89.9778V8.29559H93.2829C94.2987 8.29559 95.0722 8.06899 95.6035 7.61581C96.1505 7.16262 96.4239 6.54535 96.4239 5.764C96.4239 4.98265 96.1505 4.36538 95.6035 3.91219C95.0722 3.45901 94.2987 3.23241 93.2829 3.23241ZM93.6111 10.3584H89.9778V15.9372H93.6111C94.705 15.9372 95.5488 15.6872 96.1427 15.1871C96.7521 14.6871 97.0568 13.9917 97.0568 13.1009C97.0568 12.2414 96.7521 11.5695 96.1427 11.085C95.5488 10.6006 94.705 10.3584 93.6111 10.3584ZM109.924 18.3516C108.705 18.3516 107.572 18.1328 106.525 17.6953C105.493 17.2421 104.587 16.617 103.806 15.82C103.04 15.023 102.438 14.0932 102.001 13.0306C101.579 11.9523 101.368 10.7959 101.368 9.56138C101.368 8.32684 101.579 7.17825 102.001 6.11561C102.438 5.05297 103.04 4.13097 103.806 3.34962C104.587 2.55264 105.493 1.93537 106.525 1.49781C107.572 1.04462 108.705 0.818031 109.924 0.818031C111.142 0.818031 112.268 1.04462 113.299 1.49781C114.346 1.93537 115.252 2.55264 116.018 3.34962C116.799 4.13097 117.401 5.05297 117.823 6.11561C118.261 7.17825 118.479 8.32684 118.479 9.56138C118.479 10.7959 118.261 11.9523 117.823 13.0306C117.401 14.0932 116.799 15.023 116.018 15.82C115.252 16.617 114.346 17.2421 113.299 17.6953C112.268 18.1328 111.142 18.3516 109.924 18.3516ZM109.924 16.031C110.814 16.031 111.619 15.8669 112.338 15.5387C113.057 15.2106 113.674 14.7496 114.19 14.1557C114.721 13.5619 115.12 12.8743 115.385 12.093C115.666 11.296 115.807 10.4521 115.807 9.56138C115.807 8.67064 115.666 7.83459 115.385 7.05323C115.12 6.27188 114.721 5.5921 114.19 5.0139C113.674 4.42007 113.057 3.95907 112.338 3.6309C111.619 3.30274 110.814 3.13865 109.924 3.13865C109.033 3.13865 108.228 3.30274 107.509 3.6309C106.79 3.95907 106.165 4.42007 105.634 5.0139C105.118 5.5921 104.72 6.27188 104.438 7.05323C104.173 7.83459 104.04 8.67064 104.04 9.56138C104.04 10.4521 104.173 11.296 104.438 12.093C104.72 12.8743 105.118 13.5619 105.634 14.1557C106.165 14.7496 106.79 15.2106 107.509 15.5387C108.228 15.8669 109.033 16.031 109.924 16.031ZM134.109 1.16964V11.9523C134.109 13.2337 133.843 14.3589 133.312 15.3278C132.796 16.281 132.054 17.0233 131.085 17.5546C130.116 18.0859 128.952 18.3516 127.592 18.3516C126.248 18.3516 125.092 18.0859 124.123 17.5546C123.154 17.0233 122.404 16.281 121.873 15.3278C121.357 14.3589 121.099 13.2337 121.099 11.9523V1.16964H123.677V12.0226C123.677 12.8353 123.834 13.5463 124.146 14.1557C124.459 14.7496 124.904 15.2106 125.482 15.5387C126.061 15.8669 126.764 16.031 127.592 16.031C128.436 16.031 129.147 15.8669 129.725 15.5387C130.319 15.2106 130.764 14.7496 131.061 14.1557C131.374 13.5463 131.53 12.8353 131.53 12.0226V1.16964H134.109ZM148.948 18L140.087 4.84982V18H137.696V1.16964H140.509L149.159 13.9682V1.16964H151.55V18H148.948ZM160.506 18H155.185V1.16964H160.506C162.303 1.16964 163.835 1.52906 165.101 2.24791C166.366 2.95113 167.327 3.92782 167.984 5.17798C168.64 6.42815 168.968 7.87366 168.968 9.5145C168.968 11.1397 168.632 12.593 167.96 13.8745C167.288 15.1402 166.312 16.1482 165.03 16.8983C163.764 17.6328 162.256 18 160.506 18ZM157.764 3.3965V15.7731H160.389C161.686 15.7731 162.772 15.5231 163.647 15.023C164.538 14.5073 165.21 13.7807 165.663 12.8431C166.116 11.9054 166.343 10.7959 166.343 9.5145C166.343 8.24871 166.116 7.16262 165.663 6.25625C165.21 5.33426 164.538 4.63104 163.647 4.1466C162.772 3.64653 161.686 3.3965 160.389 3.3965H157.764Z" fill="white"/>
</svg>
